<?xml version="1.0" encoding="utf-8"?>
<!-- Generator: Adobe Illustrator 24.1.1, SVG Export Plug-In . SVG Version: 6.00 Build 0)  -->
<svg version="1.1" id="Forma_1_1_" xmlns="http://www.w3.org/2000/svg" xmlns:xlink="http://www.w3.org/1999/xlink" x="0px" y="0px"
	 viewBox="0 0 88 63" style="enable-background:new 0 0 88 63;" xml:space="preserve">
<g id="Forma_1">
	<g>
		<path d="M36.9,53.8V43.7h-3.1c-0.5,0-1.1-0.1-1.6-0.3v16.9c0,1,0.6,1.9,1.6,2.2c0.3,0.1,0.5,0.1,0.8,0.1c0.7,0,1.4-0.3,1.8-0.9
			l15-18.1h-6.1L36.9,53.8z M23.6,23.5c-0.3-0.1-0.5-0.1-0.8-0.1H2.4c-1.3,0-2.4,1-2.4,2.3c0,1.3,1.1,2.3,2.4,2.3h20l3.6,1.3
			l-0.7-5.3L23.6,23.5z M76.5,40.3c-2.9,0-5.6,1.1-7.6,2.9l-6.8-4.9l-1.6,1.7c-0.5,0.5-1.2,1.1-1.9,1.6l7.6,5.5c-0.6,1.4-1,3-1,4.7
			c0,6.3,5.1,11.4,11.4,11.4S88,57.9,88,51.6S82.9,40.3,76.5,40.3z M76.5,55.5c-2.1,0-3.8-1.7-3.9-3.8c0,0,0-0.1,0-0.1
			c0-1.8,1.2-3.2,2.8-3.7c0.3-0.1,0.7-0.2,1.1-0.2c2.1,0,3.9,1.7,3.9,3.9C80.4,53.8,78.7,55.5,76.5,55.5z M75.5,20.1
			c1.2-1.2,0.8-1.4-0.9-1.4h-44c-1.7,0-2.9,0.8-2.7,2.5l0.6,4.1l0.8,5.3l0.9,6.2c0.2,1.2,1,2.5,2.1,3.2c0.5,0.3,1,0.5,1.5,0.5h19.1
			c0.4,0,0.8-0.1,1.2-0.2c0.6-0.2,1.2-0.4,1.8-0.7c0.9-0.5,1.7-1.1,2.3-1.7l1.4-1.4L75.5,20.1z M68.9,10.9h-5.3l-3.9-6.2H51L48.5,0
			h-5.3l-4.1,7.8h-3.7l-3.1,7.8h39.3L68.9,10.9z"/>
	</g>
</g>
</svg>
