<?xml version="1.0" encoding="utf-8"?>
<!-- Generator: Adobe Illustrator 24.1.1, SVG Export Plug-In . SVG Version: 6.00 Build 0)  -->
<svg version="1.1" id="Shape_1_1_" xmlns="http://www.w3.org/2000/svg" xmlns:xlink="http://www.w3.org/1999/xlink" x="0px" y="0px"
	 viewBox="0 0 612 575" style="enable-background:new 0 0 612 575;" xml:space="preserve">
<g id="Shape_1">
	<g>
		<path d="M593.3,425h-18.7V231.2c0-10.4-8.4-18.8-18.7-18.8H449.6V18.7c0-10.4-8.4-18.7-18.7-18.7H181.1
			c-10.3,0-18.7,8.4-18.7,18.7v193.7H56.2c-10.3,0-18.7,8.4-18.7,18.8V425H18.7C8.4,425,0,433.4,0,443.7v112.5
			C0,566.6,8.4,575,18.7,575h74.9c10.3,0,18.7-8.4,18.7-18.8v-18.7h137.4v18.7c0,10.4,8.4,18.8,18.7,18.8h74.9
			c10.3,0,18.7-8.4,18.7-18.8v-18.7h137.4v18.7c0,10.4,8.4,18.8,18.7,18.8h74.9c10.3,0,18.7-8.4,18.7-18.8V443.7
			C612,433.4,603.6,425,593.3,425z M537.1,250v175H324.7V250H537.1z M199.8,37.5h212.3v175H199.8V37.5z M74.9,250h212.3v175H74.9
			V250z M574.5,537.5h-37.5v-18.7c0-10.4-8.4-18.8-18.7-18.8H343.5c-10.3,0-18.7,8.4-18.7,18.8v18.7h-37.5v-18.7
			c0-10.4-8.4-18.8-18.7-18.8H93.7c-10.3,0-18.7,8.4-18.7,18.8v18.7H37.5v-75h537.1V537.5z"/>
	</g>
</g>
</svg>
