<?xml version="1.0" encoding="utf-8"?>
<!-- Generator: Adobe Illustrator 24.1.1, SVG Export Plug-In . SVG Version: 6.00 Build 0)  -->
<svg version="1.1" id="Forma_1_1_" xmlns="http://www.w3.org/2000/svg" xmlns:xlink="http://www.w3.org/1999/xlink" x="0px" y="0px"
	 viewBox="0 0 612 510.2" style="enable-background:new 0 0 612 510.2;" xml:space="preserve">
<g id="Forma_1">
	<g>
		<path d="M232.5,111c47.3,0,89.9,12.9,120.8,34l25.3-24.4c27.8-26.9,28.6-71.3,1.7-99.1C367.3,7.9,349.9,0.3,331.1,0
			c-18.7-0.3-36.4,6.7-49.9,19.7c-0.1,0.1-0.2,0.2-0.4,0.3c-2.3,2.1-6.9,7.4-9.6,13.5c24.9,1.4,48.1,11.9,65.5,29.9
			c5.5,5.7,5.3,14.7-0.4,20.2c-5.7,5.5-14.7,5.3-20.2-0.4c-13-13.5-30.5-21.1-49.2-21.4c-18.7-0.4-36.4,6.7-49.9,19.7
			c-9.1,8.8-15.5,19.7-18.9,31.7c8.9-1.2,18-1.9,27.2-2.2C227.8,111,230.2,111,232.5,111z M591.6,251.6H20.4
			C9.1,251.6,0,260.7,0,271.9v111c0,11.2,9.1,20.4,20.4,20.4c28,0,42.7-6.3,55.6-11.8c11.2-4.8,20-8.5,39.6-8.5
			c19.6,0,28.4,3.8,39.6,8.5c13,5.5,27.6,11.8,55.6,11.8c28,0,42.7-6.3,55.6-11.8c11.2-4.8,20-8.5,39.6-8.5
			c19.6,0,28.4,3.8,39.6,8.5c13,5.5,27.6,11.8,55.6,11.8c28,0,42.7-6.3,55.6-11.8c11.2-4.8,20-8.5,39.6-8.5
			c19.6,0,28.4,3.8,39.6,8.5c13,5.5,27.6,11.8,55.6,11.8c11.2,0,20.4-9.1,20.4-20.4v-111C612,260.7,602.9,251.6,591.6,251.6z
			 M496.4,411.4c-13.8,0-18.4,2-28.4,6.3c-13.9,6-33,14.1-66.8,14.1c-33.8,0-52.9-8.2-66.8-14.1c-10-4.3-14.6-6.2-28.4-6.2
			c-13.8,0-18.4,2-28.4,6.3c-13.9,6-33,14.1-66.8,14.1c-33.8,0-52.9-8.2-66.8-14.1c-10-4.3-14.6-6.2-28.4-6.2
			c-13.8,0-18.4,2-28.4,6.2c-9.6,4.1-21.7,9.3-39.5,12.1l20.4,66c2.6,8.5,10.5,14.4,19.5,14.4h436.9c8.9,0,16.8-5.8,19.5-14.4
			l20.4-66c-17.7-2.8-29.8-8-39.5-12.1C514.8,413.4,510.2,411.4,496.4,411.4z M286.7,146.3c5.3,9.5,8.3,20.7,8.6,33.4
			c0.2,7.9-6,14.4-13.9,14.6c-0.1,0-0.3,0-0.4,0c-7.7,0-14-6.1-14.2-13.9c-0.6-20.5-18.9-36.2-40.5-35.5
			c-21.6,0.8-39.1,17.1-38.5,37.6c0.2,7.9-6,14.4-13.9,14.6c-0.1,0-0.3,0-0.4,0c-7.7,0-14-6.1-14.2-13.9c-0.3-12.7,2-24.1,6.9-33.9
			c-16.8,5.4-32.2,12.8-45.3,22.1C100.1,186.3,87,204.2,83.1,223h292.2C370.8,188.4,335.3,159.1,286.7,146.3z M462,186.5
			c-5.6,5.6-14.6,5.6-20.2,0C428.6,173.3,411,166,392.3,166c-4.6,0-9,0.5-13.4,1.3c14.4,16.3,23.4,35.3,25.1,55.8h100.5l86-86
			c27.3-27.3,27.3-71.8,0-99.1c-13.2-13.2-30.8-20.5-49.6-20.5c-18.7,0-36.3,7.3-49.6,20.5c-0.1,0.1-0.2,0.2-0.4,0.3
			c-2.3,2.2-6.8,7.5-9.3,13.7c24,0.9,47.7,10.5,66,28.7c5.6,5.6,5.6,14.6,0,20.2c-5.6,5.6-14.6,5.6-20.2,0
			c-27.3-27.3-71.8-27.3-99.1,0c-10.4,10.4-17.2,23.7-19.6,38c20.1,3.4,38.5,12.8,53.2,27.5C467.6,171.9,467.6,180.9,462,186.5z"/>
	</g>
</g>
</svg>
