<?xml version="1.0" encoding="utf-8"?>
<!-- Generator: Adobe Illustrator 24.1.1, SVG Export Plug-In . SVG Version: 6.00 Build 0)  -->
<svg version="1.1" id="Forma_1_1_" xmlns="http://www.w3.org/2000/svg" xmlns:xlink="http://www.w3.org/1999/xlink" x="0px" y="0px"
	 viewBox="0 0 89.6 57.8" style="enable-background:new 0 0 89.6 57.8;" xml:space="preserve">
<g id="Forma_1">
	<g>
		<path d="M89.5,49.7L58.5,1c-0.3-0.5-1.4-1-2-1h-18c-0.6,0-0.7,0.5-0.3,1L70,56.2c0.3,0.6,1.1,0.6,1.7,0.4L89,51.1
			C89.6,51,89.8,50.2,89.5,49.7z M34,1.5c-0.3-0.6-0.8-0.6-1.1,0l-7.7,13.6c-0.3,0.6-1,1.3-1.6,1.6C15.7,21,5.2,26.8,0.5,28.9
			c-0.7,0.3-0.7,1.2-0.1,1.7c1,1,3.2,3.3,5.3,6.1c1.2,1.6,2.2,3.4,3.1,5.2C9,42.5,9,43.5,8.7,44L2,56.3c-0.3,0.6-0.1,1.6,0.6,1.6
			h11.2c0.6,0,1.4-1,1.7-1.6l15.3-32.7v31.7c0,2.8,3,2.7,3.6,2.7h29.9c0.6,0,0.9-1,0.6-1.6L34,1.5z M30.1,18l-14.8,29
			c-0.2,0.3-0.4,0.3-0.5-0.1c-0.6-2.5-2.8-11-8.3-15.9c-0.3-0.3-0.3-0.6,0.1-0.8c3.3-1.7,18.9-9.9,23.2-12.5
			C30.1,17.5,30.3,17.6,30.1,18z"/>
	</g>
</g>
</svg>
