<?xml version="1.0" encoding="utf-8"?>
<!-- Generator: Adobe Illustrator 24.1.1, SVG Export Plug-In . SVG Version: 6.00 Build 0)  -->
<svg version="1.1" id="Shape_1_1_" xmlns="http://www.w3.org/2000/svg" xmlns:xlink="http://www.w3.org/1999/xlink" x="0px" y="0px"
	 viewBox="0 0 799.7 800" style="enable-background:new 0 0 799.7 800;" xml:space="preserve">
<g id="Shape_1">
	<g>
		<path d="M682.6,117.3C607.1,41.7,506.7,0,399.8,0C293,0,192.6,41.5,117,117.1C-28.7,262.9-39.3,495.7,90.6,653.6
			c-17.9,36.7-39.2,61.2-63,72.9c-14.6,7.2-22.8,23-20.4,39c2.5,16.3,14.9,28.8,31.2,31.3c8.9,1.3,18.4,2.2,28.3,2.2
			c49.1,0,100.7-16.9,143.7-46.6c58,31.2,123.1,47.6,189.5,47.6c106.9,0,207.2-41.5,282.8-117.1c75.6-75.6,117.1-176.1,117.1-282.8
			C799.7,293.4,758.2,192.8,682.6,117.3z M650.6,650.9c-67,67-156.1,103.9-250.8,103.9c-63.3,0-125.5-16.9-179.6-48.8
			c-3.5-2-7.5-3.2-11.4-3.2c-4.9,0-9.9,1.7-13.9,4.7c-51.3,39.7-102.9,45.6-125.5,46.1c27-20.1,49.6-51.3,68.5-94.7
			c3.5-8,2-17.4-3.9-24.1C10.2,494.7,16.7,281.3,149,148.9c67-67,156.1-103.9,250.8-103.9c94.8,0,183.8,36.9,250.8,103.9
			C789,287.5,789,512.7,650.6,650.9z M501.4,216.8c-36.2,0-70.2,14.1-95.8,39.7l-5.7,5.7l-5.7-5.7c-25.6-25.6-59.6-39.7-95.8-39.7
			c-36,0-70,14.1-95.5,39.5C177.2,282,163.1,316,163.3,352c0,36.2,14.2,70,39.7,95.7l180.8,180.8c4.4,4.4,10.2,6.7,15.9,6.7
			c5.7,0,11.6-2.2,15.9-6.5L596.9,448c25.6-25.6,39.7-59.6,39.7-95.7c0-36.2-14.1-70.2-39.5-95.8
			C571.4,230.9,537.4,216.8,501.4,216.8z M564.9,416L399.7,580.5L234.8,415.7c-17.1-17.1-26.5-39.7-26.5-63.8s9.4-46.7,26.3-63.7
			s39.5-26.3,63.7-26.3c24.1,0,46.7,9.4,63.8,26.5l21.8,21.8c8.9,8.9,23.1,8.9,32,0l21.6-21.6c17.1-17.1,39.7-26.5,63.8-26.5
			c24,0,46.6,9.4,63.7,26.5c17.1,17.1,26.5,39.7,26.3,63.7C591.3,376.3,581.9,398.9,564.9,416z"/>
	</g>
</g>
</svg>
