<svg xmlns="http://www.w3.org/2000/svg" viewBox="0 0 611.65 470.65"><defs><style>.cls-1{isolation:isolate;}</style></defs><g id="Forma_1" data-name="Forma 1" class="cls-1"><g id="Forma_1-2" data-name="Forma 1"><path d="M604.59,40,571.66,7.06c-9.41-9.41-23.53-9.41-32.94,0h-2.35L221.13,334.16a11.35,11.35,0,0,1-16.46,0L75.28,195.32,72.93,193c-9.41-9.42-23.53-9.42-32.94,0L7.06,225.91a22.75,22.75,0,0,0,0,33l4.7,7.06,183.5,197.67c4.7,4.7,9.41,7.06,16.46,7.06s11.77-2.36,16.47-7.06L604.59,73C614,63.54,614,49.42,604.59,40Z"/></g></g></svg>