<svg width="14" height="14" viewBox="0 0 14 14" fill="none" xmlns="http://www.w3.org/2000/svg">
<path d="M13.6187 0.38153C13.3523 0.115174 12.9209 0.115174 12.6546 0.38153L7.00029 6.03581L1.34601 0.38153C1.07965 0.115174 0.648189 0.115174 0.381896 0.38153C0.11554 0.647887 0.11554 1.07935 0.381896 1.34564L6.03617 6.99992L0.381896 12.6542C0.11554 12.9206 0.11554 13.352 0.381896 13.6183C0.515043 13.7515 0.689545 13.8181 0.863984 13.8181C1.03842 13.8181 1.21286 13.7515 1.34607 13.6183L7.00035 7.96404L12.6546 13.6183C12.7878 13.7515 12.9623 13.8181 13.1367 13.8181C13.3112 13.8181 13.4856 13.7515 13.6188 13.6183C13.8852 13.352 13.8852 12.9205 13.6188 12.6542L7.96453 6.99992L13.6188 1.34564C13.885 1.07935 13.885 0.647887 13.6187 0.38153Z" fill="white"/>
</svg>
