<?xml version="1.0" encoding="utf-8"?>
<!-- Generator: Adobe Illustrator 24.1.1, SVG Export Plug-In . SVG Version: 6.00 Build 0)  -->
<svg version="1.1" id="Forma_1_1_" xmlns="http://www.w3.org/2000/svg" xmlns:xlink="http://www.w3.org/1999/xlink" x="0px" y="0px"
	 viewBox="0 0 460 363" style="enable-background:new 0 0 460 363;" xml:space="preserve">
<g id="Forma_1">
	<g>
		<path d="M287.6,39.6c-17.6,0-31.9,14.3-31.9,31.9c0,17.6,14.3,31.9,31.9,31.9s31.9-14.3,31.9-31.9
			C319.5,53.9,305.2,39.6,287.6,39.6z M449,273.3H448v-83.4c0-17.7-9.3-33.2-23.3-42c9.1-2.7,15.8-11.1,15.8-21.1
			c0-12.1-9.8-22-22-22h-16.1c-2.7,0-5.2,0.5-7.6,1.4l-17.9-93.4C375.4,5.4,368.9,0,361.3,0H99.5C92,0,85.4,5.4,84,12.8l-18.2,94.9
			c-3.2-1.9-7-2.9-11-2.9H38.7c-12.1,0-22,9.8-22,22c0,10.4,7.3,19.2,17,21.4C20,157,11,172.4,11,189.9v83.4c-6,0-11,4.9-11,10.9
			v27.3c0,6,4.9,10.9,11,10.9h17c0,22.4,18.2,40.5,40.6,40.5s40.6-18.1,40.6-40.5h58.8v20.5c0,5.4,4.4,9.8,9.8,9.8h107.5
			c5.4,0,9.8-4.4,9.8-9.8v-20.5h54.8c0,22.4,18.2,40.5,40.6,40.5c22.4,0,40.6-18.1,40.6-40.5H449c6.1,0,11-4.9,11-10.9v-27.3
			C460,278.2,455.1,273.3,449,273.3z M109.1,239.8c-3.5,9-12.3,15.4-22.6,15.4c-13.4,0-24.2-10.8-24.2-24.2s10.9-24.2,24.2-24.2
			c10.2,0,18.9,6.3,22.5,15.2c1.1,2.8,1.7,5.8,1.7,9C110.7,234.1,110.1,237.1,109.1,239.8z M275.9,333.7H187v-24.3h88.9V333.7z
			 M297.1,245.1c0,5.4-4.4,9.8-9.8,9.8H175.6c-5.4,0-9.8-4.4-9.8-9.8v-46.9c0-5.4,4.4-9.8,9.8-9.8h111.7c5.4,0,9.8,4.4,9.8,9.8
			V245.1z M328.8,113.5h-82.7c-16.7,0-30.9,11.4-35.1,26.8H91.7l20.9-108.7h235.6l20.9,108.7h-5.2
			C359.7,124.9,345.5,113.5,328.8,113.5z M380.4,255.2c-13.4,0-24.2-10.8-24.2-24.2c0-13.4,10.9-24.2,24.2-24.2s24.2,10.8,24.2,24.2
			C404.6,244.3,393.8,255.2,380.4,255.2z"/>
	</g>
</g>
</svg>
