<?xml version="1.0" encoding="utf-8"?>
<!-- Generator: Adobe Illustrator 24.1.1, SVG Export Plug-In . SVG Version: 6.00 Build 0)  -->
<svg version="1.1" id="Forma_1_1_" xmlns="http://www.w3.org/2000/svg" xmlns:xlink="http://www.w3.org/1999/xlink" x="0px" y="0px"
	 viewBox="0 0 432 451" style="enable-background:new 0 0 432 451;" xml:space="preserve">
<g id="Forma_1">
	<g>
		<path d="M411.3,284c-6.5,0-12.3,3-16.1,7.7v-13.8c0-11.4-9.3-20.7-20.7-20.7c-8.4,0-15.6,5-18.9,12.1v-9.8
			c0-11.4-9.3-20.7-20.7-20.7c-11.4,0-20.7,9.3-20.7,20.7v64.7H117.9v-64.7c0-11.4-9.3-20.7-20.7-20.7c-11.4,0-20.7,9.3-20.7,20.7
			v9.8c-3.3-7.1-10.5-12.1-18.9-12.1c-11.4,0-20.7,9.3-20.7,20.7v13.8c-3.8-4.7-9.6-7.7-16.1-7.7C9.3,284,0,293.3,0,304.7v80.3
			c0,11.4,9.3,20.7,20.7,20.7c6.5,0,12.3-3,16.1-7.7v13.8c0,11.4,9.3,20.7,20.7,20.7c8.4,0,15.6-5,18.9-12.1v9.8
			c0,11.4,9.3,20.7,20.7,20.7c11.4,0,20.7-9.3,20.7-20.7v-64.7h196.2v64.7c0,11.4,9.3,20.7,20.7,20.7c11.4,0,20.7-9.3,20.7-20.7
			v-9.8c3.3,7.1,10.5,12.1,18.9,12.1c11.4,0,20.7-9.3,20.7-20.7v-13.8c3.8,4.7,9.6,7.7,16.1,7.7c11.4,0,20.7-9.3,20.7-20.7v-80.3
			C432,293.3,422.7,284,411.3,284z M411.3,45.2c-6.5,0-12.3,3-16.1,7.7V39.1c0-11.4-9.3-20.7-20.7-20.7c-8.4,0-15.6,5-18.9,12.1
			v-9.8c0-11.4-9.3-20.7-20.7-20.7c-11.4,0-20.7,9.3-20.7,20.7v64.7H117.9V20.7C117.9,9.3,108.6,0,97.2,0C85.7,0,76.4,9.3,76.4,20.7
			v9.8C73.2,23.4,66,18.4,57.6,18.4c-11.4,0-20.7,9.3-20.7,20.7v13.8c-3.8-4.7-9.6-7.7-16.1-7.7C9.3,45.2,0,54.5,0,65.9v80.3
			C0,157.7,9.3,167,20.7,167c6.5,0,12.3-3,16.1-7.7v13.8c0,11.4,9.3,20.7,20.7,20.7c8.4,0,15.6-5,18.9-12.1v9.8
			c0,11.4,9.3,20.7,20.7,20.7c11.4,0,20.7-9.3,20.7-20.7v-64.7h196.2v64.7c0,11.4,9.3,20.7,20.7,20.7c11.4,0,20.7-9.3,20.7-20.7
			v-9.8c3.3,7.1,10.5,12.1,18.9,12.1c11.4,0,20.7-9.3,20.7-20.7v-13.8c3.8,4.7,9.6,7.7,16.1,7.7c11.4,0,20.7-9.3,20.7-20.7V65.9
			C432,54.5,422.7,45.2,411.3,45.2z"/>
	</g>
</g>
</svg>
