<?xml version="1.0" encoding="utf-8"?>
<!-- Generator: Adobe Illustrator 24.1.1, SVG Export Plug-In . SVG Version: 6.00 Build 0)  -->
<svg version="1.1" id="Shape_1_1_" xmlns="http://www.w3.org/2000/svg" xmlns:xlink="http://www.w3.org/1999/xlink" x="0px" y="0px"
	 viewBox="0 0 799.8 609" style="enable-background:new 0 0 799.8 609;" xml:space="preserve">
<g id="Shape_1">
	<g>
		<path d="M702.2,0H97.8C43.9,0,0,43.9,0,97.9v413.3c0,54,43.9,97.9,97.8,97.9H702c54,0,97.8-43.9,97.8-97.9V98
			C800,44,756.1,0,702.2,0z M702.2,564.3H97.8c-29.3,0-53.1-23.8-53.1-53.2V98c0-29.3,23.8-53.2,53.1-53.2H702
			c29.3,0,53.1,23.8,53.1,53.2v413.1h0.2C755.3,540.4,731.5,564.3,702.2,564.3z M504.4,299.4L700,123.9c9.1-8.3,9.9-22.4,1.7-31.6
			c-8.3-9.1-22.3-9.9-31.6-1.7L400.3,332.8l-52.6-47c-0.2-0.2-0.3-0.3-0.3-0.5c-1.2-1.2-2.3-2.2-3.6-3.1L129.6,90.4
			c-9.3-8.3-23.3-7.5-31.6,1.8c-8.3,9.3-7.4,23.3,1.8,31.6l197.9,177L100.6,485.5c-8.9,8.4-9.4,22.5-1,31.6
			c4.5,4.6,10.4,7.1,16.4,7.1c5.5,0,10.9-2,15.2-6L331.3,331l54.3,48.5c4.3,3.8,9.6,5.6,14.9,5.6c5.3,0,10.8-2,14.9-5.8l55.8-50
			l198.9,189.1c4.3,4.1,9.9,6.1,15.4,6.1c6,0,11.7-2.3,16.2-7c8.4-8.9,8.1-23.2-0.8-31.6L504.4,299.4z"/>
	</g>
</g>
</svg>
