<?xml version="1.0" encoding="utf-8"?>
<!-- Generator: Adobe Illustrator 24.1.1, SVG Export Plug-In . SVG Version: 6.00 Build 0)  -->
<svg version="1.1" id="Shape_1_1_" xmlns="http://www.w3.org/2000/svg" xmlns:xlink="http://www.w3.org/1999/xlink" x="0px" y="0px"
	 viewBox="0 0 800 657.2" style="enable-background:new 0 0 800 657.2;" xml:space="preserve">
<g id="Shape_1">
	<g>
		<path d="M780.5,399.5c-0.7-2.1-192.9-355.9-192.9-355.9c-22.1-40.4-72.8-55.4-113.4-33.5c-40.4,22.1-55.5,72.8-33.5,113.3
			c8.8,16.2,29.3,22.2,45.5,13.4c16.2-8.8,22.3-29.3,13.4-45.5c-4.4-8-1.3-18,6.5-22.4c7.9-4.4,18-1.3,22.4,6.5L653.9,306
			c-10.1-1.8-20.5-2.8-31.1-2.8c-74.8,0-139.4,46.4-165.1,112.8c-17.3-10.5-35.7-15.9-54.8-15.9c-22.9,0-43.2,7.4-59.9,17
			C318.2,350,253.7,301.6,177,301.6c-10.1,0-20.1,0.8-29.8,2.6L271.6,75.6c4.4-8,14.4-11,22.4-6.5c8,4.4,11,14.4,6.5,22.4
			c-8.8,16.2-2.8,36.6,13.4,45.5c16.2,8.8,36.6,2.8,45.5-13.4c22.1-40.4,7-91.2-33.5-113.3c-40.2-22.1-91.1-7-113.2,33.4
			c0,0-190.6,350.4-190.8,350.7C8,419.8,0,449,0,480.1C0,577.1,78.4,657,177,657c94.4,0,171.8-73.2,176.7-165.9
			c10-10,28.3-24.5,47.6-24.5c14.6,0,29.3,9.3,45.3,29.4c8,89.8,82.9,161.2,176.4,161.2c97,0,177-79.9,177-176.9
			C800,451.2,793,423.7,780.5,399.5z M177,589.2c-61.3,0-110.6-49.4-110.6-110.5c0-61.1,49.4-110.5,110.6-110.5
			c61.4,0,110.6,51,110.6,110.5C287.6,539.8,238.4,589.2,177,589.2z M623,589.2c-61.3,0-110.6-49.4-110.6-110.5
			c0-61.1,49.4-110.5,110.6-110.5c61.3,0,110.6,51,110.6,110.5C733.6,539.8,684.2,589.2,623,589.2z"/>
	</g>
</g>
</svg>
