<?xml version="1.0" encoding="utf-8"?>
<!-- Generator: Adobe Illustrator 24.1.1, SVG Export Plug-In . SVG Version: 6.00 Build 0)  -->
<svg version="1.1" id="Forma_1_1_" xmlns="http://www.w3.org/2000/svg" xmlns:xlink="http://www.w3.org/1999/xlink" x="0px" y="0px"
	 viewBox="0 0 58 61.7" style="enable-background:new 0 0 58 61.7;" xml:space="preserve">
<g id="Forma_1">
	<g>
		<path d="M55.6,18.5L31.8,0.9c-1.5-1.1-4.1-1.1-5.6,0L2.4,18.5C1,19.5,0,21.5,0,23.3v34.4c0,2.2,1.8,4,4,4h50c2.2,0,4-1.8,4-4V23.3
			C58,21.5,57,19.5,55.6,18.5z M4,57.7V23.3c0-0.5,0.4-1.3,0.8-1.6L28.6,4.1c0,0,0.2-0.1,0.4-0.1c0.2,0,0.4,0.1,0.4,0.1l23.8,17.6
			c0.4,0.3,0.8,1.1,0.8,1.6l0,34.4H4z M21.1,23.6h5.2c0.3,0,0.6,0.3,0.6,0.6v5.3c0,0.3,0.3,0.6,0.6,0.6H32c0.3,0,0.6-0.3,0.6-0.6
			v-5.3c0-0.3,0.3-0.6,0.6-0.6h5.2c0.3,0,0.6-0.3,0.6-0.6v-4.4c0-0.3-0.3-0.6-0.6-0.6h-5.2c-0.3,0-0.6-0.3-0.6-0.6V12
			c0-0.3-0.3-0.6-0.6-0.6h-4.4c-0.3,0-0.6,0.3-0.6,0.6v5.3c0,0.3-0.3,0.6-0.6,0.6h-5.2c-0.3,0-0.6,0.3-0.6,0.6V23
			C20.5,23.3,20.8,23.6,21.1,23.6z M48.5,36.5c-0.7,0-1.4,0.5-1.5,1.3c0,0,0,0.3,0,0.3v7.5h-2.2c0,0,0-0.4,0-0.9
			c0-0.5-0.9-0.9-2-0.9H16.2l-0.1-0.1c-0.9-1.2-2.4-1.8-3.7-1.9V33c0-1.1-0.9-2-2-2c-1.1,0-2,0.9-2,2v21.3c0,1.1,0.9,2,2,2
			c1.1,0,2-0.9,2-2v-5.7h2.1c0,0,0,0.5,0,1.2c0,0.6,0.8,1.6,1.9,1.9c4.7,1.2,13.5,0.5,16.2-0.7c2.2-1,7.4-0.6,10.3-0.3
			c1.1,0.1,2-0.3,2-0.9v-1.2H47v5.7c0,0.8,0.7,1.5,1.5,1.5c0.8,0,1.5-0.7,1.5-1.5V38c0,0,0-0.3,0-0.3C49.8,37,49.2,36.5,48.5,36.5z"
			/>
	</g>
</g>
</svg>
