<?xml version="1.0" encoding="utf-8"?>
<!-- Generator: Adobe Illustrator 24.1.1, SVG Export Plug-In . SVG Version: 6.00 Build 0)  -->
<svg version="1.1" id="Forma_1_1_" xmlns="http://www.w3.org/2000/svg" xmlns:xlink="http://www.w3.org/1999/xlink" x="0px" y="0px"
	 viewBox="0 0 60 57" style="enable-background:new 0 0 60 57;" xml:space="preserve">
<g id="Forma_1">
	<g>
		<path d="M59,46c-0.6,0-1,0.4-1,1v1h-1v-1c0-0.6-0.4-1-1-1s-1,0.4-1,1v1h-2V25.9l0.8,0.6c1.2,0.9,3,0.8,4-0.3
			c1.2-1.3,1-3.3-0.3-4.4L32,1.9L30,0l-2,1.9L2.5,21.8c-1.4,1.1-1.5,3.1-0.3,4.4c1.1,1.1,2.8,1.3,4,0.3L30,8.2L7,25.9V48H5v-1
			c0-0.6-0.4-1-1-1s-1,0.4-1,1v1H2v-1c0-0.6-0.4-1-1-1s-1,0.4-1,1v9c0,0.6,0.4,1,1,1s1-0.4,1-1v-1h1v1c0,0.6,0.4,1,1,1s1-0.4,1-1v-1
			h2v2h26V39h12v18h8v-2h2v1c0,0.6,0.4,1,1,1s1-0.4,1-1v-1h1v1c0,0.6,0.4,1,1,1s1-0.4,1-1v-9C60,46.4,59.6,46,59,46z M3,53H2v-3h1
			V53z M7,53H5v-3h2V53z M20,49h-5v-4h5V49z M20,43h-5v-4h5V43z M27,49h-5v-4h5V49z M27,43h-5v-4h5V43z M27,33H15v-4h12V33z M27,27
			H15v-2h12V27z M45,33H33v-2h12V33z M45,29H33v-4h12V29z M55,53h-2v-3h2V53z M58,53h-1v-3h1V53z"/>
	</g>
</g>
</svg>
