<?xml version="1.0" encoding="utf-8"?>
<!-- Generator: Adobe Illustrator 24.1.1, SVG Export Plug-In . SVG Version: 6.00 Build 0)  -->
<svg version="1.1" id="Forma_1_1_" xmlns="http://www.w3.org/2000/svg" xmlns:xlink="http://www.w3.org/1999/xlink" x="0px" y="0px"
	 viewBox="0 0 921 680" style="enable-background:new 0 0 921 680;" xml:space="preserve">
<g id="Forma_1">
	<g>
		<path d="M382.2,572.5C352.4,590,317.8,600,280.8,600C170.1,600,80,509.8,80,399.1c0-85.2,53.4-158.2,128.4-187.4l-57.9-61.6
			c-24.9,13-47.9,29.9-68.3,50.3C29.2,253.5,0,324,0,399s29.2,145.5,82.2,198.6c53.1,53.2,123.7,82.4,198.7,82.4
			c56,0,109.5-16.3,155.1-46.6c-6.2-5.4-12.2-11.1-18.1-17.1C404.6,602.7,392.7,588,382.2,572.5z M838.8,200.6
			c-53-53-123.5-82.2-198.5-82.2c-56.7,0-110.8,16.7-156.8,47.8c20.4,17.6,38.5,38.1,53.7,60.7c30.2-18.1,65.4-28.6,103.1-28.6
			c110.7,0,200.8,90.1,200.8,200.9S751,600,640.3,600c-50.6,0-100.7-19.9-137.6-54.6c-39.9-37.6-63.2-91.4-63.2-146.2
			c0-17.5,2.3-34.6,6.5-50.8c-4.4-14.4-10.7-28.1-18.7-41c-9.6-15.2-21.4-28.8-35-40.3c-21.4,40.2-32.8,85.2-32.8,132
			c0,80.9,36.1,159.9,97.5,212.8c48.6,41.9,111.9,66.3,176,68c2.4,0.1,4.8,0.1,7.3,0.1c75,0,145.5-29.2,198.5-82.2
			c53-53,82.2-123.5,82.2-198.6S891.8,253.6,838.8,200.6z M353.3,211.8c1.7,0.7,3.5,1.4,5.2,2.1c42.3,17.8,78,50.2,99.6,90.7
			c23.2,43.5,29.6,95.4,17.7,143.2l6.3,15.5c10.4,25.5,27,48.2,47.8,66c16.6-31.6,26.9-66.1,30.5-102.1c0.9-9.3,1.4-18.7,1.4-28
			c-0.1-87.8-43.3-172.1-112.5-224.7c-12-9.1-24.8-17.3-38.3-24.3L353.3,211.8z M262.6,228.5c4.9,5.2,11.6,7.9,18.2,7.9
			s13.3-2.6,18.2-7.9l24.2-25.7L423.7,95.9c7.8-8.3,9-20.9,2.9-30.5l-34.2-53.8C387.8,4.4,379.9,0,371.3,0H190.5
			C182,0,174,4.4,169.4,11.6l-34.2,53.8c-6.1,9.6-5,22.2,2.9,30.5L262.6,228.5z"/>
	</g>
</g>
</svg>
