<?xml version="1.0" encoding="utf-8"?>
<!-- Generator: Adobe Illustrator 24.1.1, SVG Export Plug-In . SVG Version: 6.00 Build 0)  -->
<svg version="1.1" id="Shape_1_1_" xmlns="http://www.w3.org/2000/svg" xmlns:xlink="http://www.w3.org/1999/xlink" x="0px" y="0px"
	 viewBox="0 0 799.3 799.8" style="enable-background:new 0 0 799.3 799.8;" xml:space="preserve">
<g id="Shape_1">
	<g>
		<path d="M788.6,640.2l-102-101.9c-13.6-13.6-34-13.6-47.5,0c-13.6,13.6-13.6,34,0,47.5l45.9,45.9H566v-50.6c0-18.6-15.4-34-34-34
			c-18.6,0-34,15.3-34,34v50.6H380.7v-50.6c0-18.6-15.4-34-34-34c-18.6,0-34,15.3-34,34v50.6H170V499.3h36.6c18.6,0,34-15.3,34-34
			s-15.4-34-34-34H170V314.1h36.6c18.6,0,34-15.3,34-34s-15.4-34-34-34H170v-131l44.1,44.1c13.6,13.6,34,13.6,47.5,0
			c13.6-13.6,13.6-34,0-47.5L159.7,9.9c-12.6-12.6-33-13.7-47.5,0l-102,102.1c-13.6,13.6-13.6,34,0,47.5c13.6,13.6,34,13.6,47.5,0
			l44.1-44.1V664c0,18.6,15.4,34,34,34h547.4l-44.1,44.1c-13.6,13.6-13.6,34,0,47.5c13.6,13.6,34,13.6,47.5,0l102-101.9
			C802.1,675.1,803.6,654.7,788.6,640.2z M287.1,422.7c15.4,11.9,35.6,8.5,47.5-5.1l74.8-90l122.4,95.2c21.9,15,39.1,1.6,45.9-5.1
			l205.7-241.2c11.9-15.3,10.1-35.6-3.4-47.5c-15.4-11.9-35.6-10.1-47.5,3.4l-186.9,219l-122.4-96.8c-13.6-10.1-34-8.5-45.9,5.1
			l-95.3,115.4C270.1,390.5,273.6,410.9,287.1,422.7z"/>
	</g>
</g>
</svg>
