<svg id="Шар_1" data-name="Шар 1" xmlns="http://www.w3.org/2000/svg" viewBox="0 0 40.80203 17.99944"><defs><style>.cls-1{fill:#d61016;}.cls-2{fill:#ffd429;}</style></defs><title>3</title><path d="M478.37061,277.67542h-.83539v-.42523h2.1203v-.86627h-3.19684V278.442l.00092.00116.00079-.00116h1.8894c.29681,0,.58331.14691.58331.37268,0,.252-.2865.41138-.58862.41138l-1.8858.00208v.83087h1.96405c.85938,0,1.4115-.4411,1.4115-1.20239C479.83423,278.064,479.21442,277.67542,478.37061,277.67542Z" transform="translate(-459.99857 -270.99976)"/><path d="M480.3014,280.059h.9427l1.4776-2.0685v2.0685h1.0001v-3.6751h-.9428l-1.4776,2.0685v-2.0685h-1Z" transform="translate(-459.99857 -270.99976)"/><path d="M485.3889,280.059h1.0105v-2.7826h1.1598v-.8925H484.229v.8925h1.1599Z" transform="translate(-459.99857 -270.99976)"/><path d="M490.603,278.13751a.85067.85067,0,0,0,.5625-.81909.81673.81673,0,0,0-.23444-.6037,1.33732,1.33732,0,0,0-.99481-.33081h-1.86987v.883h1.64069c.30212,0,.44269.07092.44269.27039,0,.22559-.15619.3114-.4635.3114h-1.61987V280.059h1.88031c.86981,0,1.38019-.38324,1.38019-1.01331A.89327.89327,0,0,0,490.603,278.13751Zm-.77094,1.16919h-.78131v-.74408h.77094c.3385,0,.49481.13129.49481.33069A.43111.43111,0,0,1,489.83209,279.3067Z" transform="translate(-459.99857 -270.99976)"/><path d="M491.8559,280.059h1.0625l.2605-.6564h1.4062l.2657.6564h1.0833l-1.5521-3.7013h-.974Zm1.6198-1.4492.4115-1.0446.4063,1.0446Z" transform="translate(-459.99857 -270.99976)"/><path d="M478.3556,284.6865a1.83442,1.83442,0,0,0,1.6146-.8295l-.7604-.546a.99344.99344,0,0,1-.8229.4462.989.989,0,0,1,0-1.9636.97914.97914,0,0,1,.8021.4253l.7396-.5774a1.75856,1.75856,0,0,0-1.5313-.7769,1.88023,1.88023,0,0,0-1.9219,1.9109A1.86124,1.86124,0,0,0,478.3556,284.6865Z" transform="translate(-459.99857 -270.99976)"/><path d="M480.2688,284.613h1.0105v-.9503l.3698-.4147.9166,1.365h1.2136l-1.4271-2.0947,1.3803-1.5804h-1.198l-1.2552,1.4912v-1.4912h-1.0105Z" transform="translate(-459.99857 -270.99976)"/><path d="M484.2017,284.613h.9427l1.4115-2.0686v2.0686h1v-3.6751h-.9427l-1.4115,2.0685v-2.0685h-1Z" transform="translate(-459.99857 -270.99976)"/><path d="M488.0616,285.0813h.9063l.0677-.4683h1.8053v.4683h.7881l.1146-1.3608h-.2792v-2.7826h-2.3796l-.6342,2.7826h-.389Zm1.3803-1.3608.2864-1.8533v-.0369h.7256v1.8902Z" transform="translate(-459.99857 -270.99976)"/><path d="M493.9104,284.6865a1.91166,1.91166,0,1,0-1.9584-1.911A1.91713,1.91713,0,0,0,493.9104,284.6865Zm.0104-.9189a.95067.95067,0,0,1-.9323-.9921.93647.93647,0,0,1,.9219-.9924.95182.95182,0,0,1,.9375.9924A.93717.93717,0,0,1,493.9208,283.7676Z" transform="translate(-459.99857 -270.99976)"/><path d="M496.4038,284.613h1.0104v-.9503l.3698-.4147.9167,1.365h1.2136l-1.4271-2.0947,1.3802-1.5804h-1.1979l-1.2553,1.4912v-1.4912h-1.0104Z" transform="translate(-459.99857 -270.99976)"/><path d="M460.0141,288.6523h.2655v-.64h.7211v.64h.2655v-1.5186h-.2655v.6313h-.7211v-.6313h-.2655Z" transform="translate(-459.99857 -270.99976)"/><path d="M462.645,288.6523v-.6789a.4408.4408,0,0,0-.5008-.4838.97265.97265,0,0,0-.434.0955l.0713.2103a.7916.7916,0,0,1,.326-.0716c.1813,0,.2807.0867.2807.2452v.0216a.95608.95608,0,0,0-.3152-.0477c-.2656,0-.462.1215-.462.3753a.366.366,0,0,0,.4058.3579.46.46,0,0,0,.3692-.1648v.141Zm-.2525-.4142c0,.143-.1296.2407-.3023.2407-.123,0-.2202-.0609-.2202-.1692,0-.1151.0972-.1823.2612-.1823a.742.742,0,0,1,.2613.0456Z" transform="translate(-459.99857 -270.99976)"/><path d="M463.5469,288.6783a.57557.57557,0,0,0,.4663-.2148l-.1576-.1561a.40071.40071,0,0,1-.2957.1432.34785.34785,0,0,1-.3411-.369v-.0043a.343.343,0,0,1,.3281-.3643.383.383,0,0,1,.2958.1432l.1619-.1757a.56847.56847,0,0,0-.4555-.1975.58946.58946,0,0,0-.5916.5986v.0045A.58342.58342,0,0,0,463.5469,288.6783Z" transform="translate(-459.99857 -270.99976)"/><path d="M464.5503,288.6523h.2633v-.9197h.367v-.2256h-.9974v.2256h.3671Z" transform="translate(-459.99857 -270.99976)"/><path d="M465.9509,288.6783a.59772.59772,0,1,0-.6044-.5967A.59738.59738,0,0,0,465.9509,288.6783Zm.0043-.2277a.35418.35418,0,0,1-.3475-.369.34424.34424,0,0,1,.3432-.3686.35325.35325,0,0,1,.3498.3686A.346.346,0,0,1,465.9552,288.4506Z" transform="translate(-459.99857 -270.99976)"/><path d="M466.788,288.6523h.3065l.2699-.3861h.2332v.3861h.2612V287.507h-.5721c-.2872,0-.4491.1518-.4491.373a.34522.34522,0,0,0,.2656.3426Zm.5354-.5835c-.1339,0-.2245-.0651-.2245-.1757,0-.1085.0842-.1736.2223-.1736h.2764v.3493Z" transform="translate(-459.99857 -270.99976)"/><path d="M469.7861,288.9277h.218l.0324-.501h-.1619v-.9197h-.2612v.9197h-.421v-.9197h-.2591v.9197h-.4209v-.9197h-.2613v1.1453h1.535Z" transform="translate(-459.99857 -270.99976)"/><path d="M471.2749,288.6523v-.6789a.44088.44088,0,0,0-.5009-.4838.97187.97187,0,0,0-.4339.0955l.0712.2103a.792.792,0,0,1,.326-.0716c.1814,0,.2807.0867.2807.2452v.0216a.95563.95563,0,0,0-.3152-.0477c-.2656,0-.462.1215-.462.3753a.36611.36611,0,0,0,.4059.3579.4598.4598,0,0,0,.3691-.1648v.141Zm-.2526-.4142c0,.143-.1295.2407-.3023.2407-.123,0-.2202-.0609-.2202-.1692,0-.1151.0972-.1823.2613-.1823a.74143.74143,0,0,1,.2612.0456Z" transform="translate(-459.99857 -270.99976)"/><path d="M471.5463,288.6523h.3066l.2699-.3861h.2331v.3861h.2613V287.507h-.5722c-.2871,0-.449.1518-.449.373a.34524.34524,0,0,0,.2655.3426Zm.5354-.5835c-.1338,0-.2245-.0651-.2245-.1757,0-.1085.0842-.1736.2224-.1736h.2763v.3493Z" transform="translate(-459.99857 -270.99976)"/><path d="M473.7216,288.6523h.2612v-.9197h.5462v-.2256h-.8074Z" transform="translate(-459.99857 -270.99976)"/><path d="M475.2777,288.6783a.59772.59772,0,1,0-.6044-.5967A.59738.59738,0,0,0,475.2777,288.6783Zm.0043-.2277a.35418.35418,0,0,1-.3475-.369.34424.34424,0,0,1,.3432-.3686.35325.35325,0,0,1,.3498.3686A.346.346,0,0,1,475.282,288.4506Z" transform="translate(-459.99857 -270.99976)"/><path d="M476.2184,288.9992h.2612v-.5248a.46389.46389,0,0,0,.3865.2017.60058.60058,0,0,0,0-1.1931.455.455,0,0,0-.3865.2148v-.1908h-.2612Zm.5872-.5508a.37074.37074,0,0,1,0-.7375.37155.37155,0,0,1,0,.7375Z" transform="translate(-459.99857 -270.99976)"/><path d="M478.2709,288.6783a.59772.59772,0,1,0-.6045-.5967A.59738.59738,0,0,0,478.2709,288.6783Zm.0043-.2277a.35426.35426,0,0,1-.3476-.369.34432.34432,0,0,1,.3433-.3686.35317.35317,0,0,1,.3497.3686A.346.346,0,0,1,478.2752,288.4506Z" transform="translate(-459.99857 -270.99976)"/><path d="M479.0583,288.9277h.218l.0259-.2754h.7988v.2754h.2181l.0345-.501h-.1619v-.9197h-.883v.1408a1.81162,1.81162,0,0,1-.1273.7789h-.1231Zm.3908-.501a1.30417,1.30417,0,0,0,.1057-.5424v-.1517h.3757v.6941Z" transform="translate(-459.99857 -270.99976)"/><path d="M481.1626,288.6783a.57557.57557,0,0,0,.4663-.2148l-.1575-.1561a.40109.40109,0,0,1-.2958.1432.34785.34785,0,0,1-.3411-.369v-.0043a.343.343,0,0,1,.3281-.3643.383.383,0,0,1,.2958.1432l.1619-.1757a.56833.56833,0,0,0-.4555-.1975.58937.58937,0,0,0-.5915.5986v.0045A.58334.58334,0,0,0,481.1626,288.6783Z" transform="translate(-459.99857 -270.99976)"/><path d="M481.922,288.6523h.2591v-.2755l.1857-.1975.3454.473h.3087l-.4793-.6638.4426-.4815h-.3066l-.4965.5486v-.5486h-.2591Z" transform="translate(-459.99857 -270.99976)"/><path d="M484.1797,288.6523v-.6789a.44088.44088,0,0,0-.5009-.4838.97219.97219,0,0,0-.4339.0955l.0712.2103a.792.792,0,0,1,.326-.0716c.1814,0,.2807.0867.2807.2452v.0216a.95518.95518,0,0,0-.3152-.0477c-.2656,0-.462.1215-.462.3753a.36607.36607,0,0,0,.4058.3579.45987.45987,0,0,0,.3692-.1648v.141Zm-.2526-.4142c0,.143-.1295.2407-.3022.2407-.1231,0-.2203-.0609-.2203-.1692,0-.1151.0972-.1823.2613-.1823a.74143.74143,0,0,1,.2612.0456Z" transform="translate(-459.99857 -270.99976)"/><path d="M484.4511,288.6523h.3066l.2699-.3861h.2331v.3861h.2612V287.507h-.572c-.2872,0-.4491.1518-.4491.373a.34524.34524,0,0,0,.2655.3426Zm.5355-.5835c-.1339,0-.2246-.0651-.2246-.1757,0-.1085.0842-.1736.2224-.1736h.2763v.3493Z" transform="translate(-459.99857 -270.99976)"/><path d="M486.6264,288.9992h.2613v-.5248a.4637.4637,0,0,0,.3864.2017.60058.60058,0,0,0,0-1.1931.45472.45472,0,0,0-.3864.2148v-.1908h-.2613Zm.5872-.5508a.37074.37074,0,0,1,0-.7375.37155.37155,0,0,1,0,.7375Z" transform="translate(-459.99857 -270.99976)"/><path d="M489.0934,288.6523v-.6789a.44085.44085,0,0,0-.5008-.4838.97233.97233,0,0,0-.434.0955l.0713.2103a.7916.7916,0,0,1,.326-.0716c.1813,0,.2806.0867.2806.2452v.0216a.95518.95518,0,0,0-.3152-.0477c-.2655,0-.462.1215-.462.3753a.36611.36611,0,0,0,.4059.3579.46017.46017,0,0,0,.3692-.1648v.141Zm-.2526-.4142c0,.143-.1295.2407-.3022.2407-.1231,0-.2202-.0609-.2202-.1692,0-.1151.0971-.1823.2612-.1823a.741.741,0,0,1,.2612.0456Z" transform="translate(-459.99857 -270.99976)"/><path d="M489.9953,288.6783a.57571.57571,0,0,0,.4663-.2148l-.1576-.1561a.40075.40075,0,0,1-.2958.1432.34785.34785,0,0,1-.3411-.369v-.0043a.34311.34311,0,0,1,.3282-.3643.38268.38268,0,0,1,.2957.1432l.162-.1757a.56854.56854,0,0,0-.4556-.1975.58937.58937,0,0,0-.5915.5986v.0045A.58336.58336,0,0,0,489.9953,288.6783Z" transform="translate(-459.99857 -270.99976)"/><path d="M490.7547,288.6523h.2612v-.9197h.4944v.9197h.2612V287.507h-1.0168Z" transform="translate(-459.99857 -270.99976)"/><path d="M492.1638,288.9992h.2613v-.5248a.4637.4637,0,0,0,.3864.2017.60058.60058,0,0,0,0-1.1931.45472.45472,0,0,0-.3864.2148v-.1908h-.2613Zm.5872-.5508a.37074.37074,0,0,1,0-.7375.37155.37155,0,0,1,0,.7375Z" transform="translate(-459.99857 -270.99976)"/><path d="M494.2163,288.6783a.59772.59772,0,1,0-.6045-.5967A.59738.59738,0,0,0,494.2163,288.6783Zm.0043-.2277a.35426.35426,0,0,1-.3476-.369.34432.34432,0,0,1,.3433-.3686.35317.35317,0,0,1,.3497.3686A.346.346,0,0,1,494.2206,288.4506Z" transform="translate(-459.99857 -270.99976)"/><path d="M495.0037,288.9277h.2181l.0259-.2754h.7988v.2754h.218l.0345-.501h-.1619v-.9197h-.8829v.1408a1.81,1.81,0,0,1-.1274.7789h-.1231Zm.3908-.501a1.30417,1.30417,0,0,0,.1057-.5424v-.1517h.3757v.6941Z" transform="translate(-459.99857 -270.99976)"/><path d="M497.5377,288.6523v-.6789a.44088.44088,0,0,0-.5009-.4838.97187.97187,0,0,0-.4339.0955l.0712.2103a.7916.7916,0,0,1,.326-.0716c.1813,0,.2807.0867.2807.2452v.0216a.95608.95608,0,0,0-.3152-.0477c-.2656,0-.4621.1215-.4621.3753a.36611.36611,0,0,0,.4059.3579.46.46,0,0,0,.3692-.1648v.141Zm-.2526-.4142c0,.143-.1296.2407-.3023.2407-.123,0-.2202-.0609-.2202-.1692,0-.1151.0972-.1823.2612-.1823a.7416.7416,0,0,1,.2613.0456Z" transform="translate(-459.99857 -270.99976)"/><path d="M497.7681,288.6523h.2936l.326-.488.1749.1994v.2886h.2612v-.2886l.1749-.1994.326.488h.2936l-.4448-.6638.4297-.4815h-.3045l-.4749.5618v-.5618h-.2612v.5618l-.4728-.5618h-.3044l.4296.4815Z" transform="translate(-459.99857 -270.99976)"/><path d="M500.8006,288.6523v-.6789a.44088.44088,0,0,0-.5009-.4838.97187.97187,0,0,0-.4339.0955l.0712.2103a.7916.7916,0,0,1,.326-.0716c.1814,0,.2807.0867.2807.2452v.0216a.95608.95608,0,0,0-.3152-.0477c-.2656,0-.462.1215-.462.3753a.366.366,0,0,0,.4058.3579.46.46,0,0,0,.3692-.1648v.141Zm-.2526-.4142c0,.143-.1295.2407-.3023.2407-.123,0-.2202-.0609-.2202-.1692,0-.1151.0972-.1823.2613-.1823a.74186.74186,0,0,1,.2612.0456Z" transform="translate(-459.99857 -270.99976)"/><path class="cls-1" d="M474.0042,275.4211l.3487.5252.6128-.072a.05005.05005,0,0,1,.044.0802l-.3761.5031.2569.5789a.04921.04921,0,0,1-.0603.0676l-.5811-.2141-.4539.4297a.04841.04841,0,0,1-.0812-.0384l.0169-.6356-.5375-.3131a.05047.05047,0,0,1,.0101-.0914l.5916-.1788.1217-.6231A.04792.04792,0,0,1,474.0042,275.4211Z" transform="translate(-459.99857 -270.99976)"/><path class="cls-1" d="M466.5302,273.8146l.2366.3621.4158-.0497a.03452.03452,0,0,1,.0298.0554l-.2552.3468.1743.3993a.03361.03361,0,0,1-.0408.0466l-.3944-.1476-.308.2963a.0328.0328,0,0,1-.0551-.0263l.0115-.4386-.3647-.2158a.03491.03491,0,0,1,.0068-.0629l.4015-.1235.0825-.4298A.03234.03234,0,0,1,466.5302,273.8146Z" transform="translate(-459.99857 -270.99976)"/><path class="cls-1" d="M471.7273,271.0728l.0547,1.0195.8785.3894a.08252.08252,0,0,1-.004.1482l-.9001.4078-.1105,1.0214a.07634.07634,0,0,1-.1341.047l-.6111-.7672-.9466.2417a.07693.07693,0,0,1-.0788-.1189l.5225-.8823-.4748-.8721a.08208.08208,0,0,1,.0854-.1207l.9341.2222.6533-.7805A.07341.07341,0,0,1,471.7273,271.0728Z" transform="translate(-459.99857 -270.99976)"/><path class="cls-1" d="M459.9995,283.7125a.99789.99789,0,0,0,1.0811.93h8.3291a2.32234,2.32234,0,0,0,1.4119-.4202c.8354-.8201,2.2953-2.5203,3.0631-3.4274a.85721.85721,0,0,0-.0563-1.1499c-1.0908-1.0584-3.427-3.273-3.8462-3.254l-8.8775-.0144a1.16435,1.16435,0,0,0-1.1052,1.1051Zm12.053-3.465a.55886.55886,0,1,1-.55875-.57A.56446.56446,0,0,1,472.0525,280.2475Z" transform="translate(-459.99857 -270.99976)"/><path class="cls-2" d="M467.0295,278.3993a.2934.2934,0,0,0-.4127.07l-2.8239,4.0057a.30223.30223,0,0,0,.0686.4181.29136.29136,0,0,0,.1275.0523.29463.29463,0,0,0,.2852-.1225l2.8239-4.0056A.302.302,0,0,0,467.0295,278.3993Z" transform="translate(-459.99857 -270.99976)"/><path class="cls-2" d="M464.7998,279.5898c.0927-.6201-1.038-2.0584-1.038-2.0584a5.13263,5.13263,0,0,0-1.1806,1.7211,1.12214,1.12214,0,1,0,2.2186.3373Zm-1.1888.3626a.53731.53731,0,1,1,.6039-.4516A.53588.53588,0,0,1,463.611,279.9524Z" transform="translate(-459.99857 -270.99976)"/><path class="cls-2" d="M467.3818,280.7488a1.12762,1.12762,0,0,0-1.2775.9557c-.0927.6199,1.0381,2.0584,1.0381,2.0584a5.13223,5.13223,0,0,0,1.1806-1.7212A1.13409,1.13409,0,0,0,467.3818,280.7488Zm-.2476,1.6556a.5373.5373,0,1,1,.6038-.4516A.536.536,0,0,1,467.1342,282.4044Z" transform="translate(-459.99857 -270.99976)"/></svg>