<?xml version="1.0" encoding="UTF-8"?>
<!DOCTYPE svg PUBLIC "-//W3C//DTD SVG 1.1//EN" "http://www.w3.org/Graphics/SVG/1.1/DTD/svg11.dtd">
<!-- Creator: CorelDRAW 2017 -->
<svg xmlns="http://www.w3.org/2000/svg" xml:space="preserve" width="195.665mm" height="58.42mm" version="1.1" style="shape-rendering:geometricPrecision; text-rendering:geometricPrecision; image-rendering:optimizeQuality; fill-rule:evenodd; clip-rule:evenodd"
viewBox="0 0 19566.5 5842"
 xmlns:xlink="http://www.w3.org/1999/xlink">
 <defs>
  <style type="text/css">
   <![CDATA[
    .fil1 {fill:black;fill-rule:nonzero}
    .fil0 {fill:#FFD600;fill-rule:nonzero}
    .fil2 {fill:black;fill-rule:nonzero}
   ]]>
  </style>
 </defs>
 <g id="Слой_x0020_1">
  <metadata id="CorelCorpID_0Corel-Layer"/>
  <g id="_1323296515056">
   <path class="fil0" d="M2922.66 5327.21c-1329.66,0 -2407.56,-1077.23 -2407.56,-2406.14 0,-1328.92 1077.9,-2406.18 2407.56,-2406.18 1329.69,0 2407.59,1077.26 2407.59,2406.18 0,1328.91 -1077.9,2406.14 -2407.59,2406.14zm0 -5327.21c-1614.11,0 -2922.66,1307.87 -2922.66,2921.07 0,607.54 185.66,1171.57 503.27,1638.88l-501.47 1252.87 1417.96 -386.39c439.14,263.75 953.25,415.57 1502.9,415.57 1614.15,0 2922.78,-1307.73 2922.78,-2920.93 0,-1613.2 -1308.63,-2921.07 -2922.78,-2921.07z"/>
   <path class="fil0" d="M2608.1 2303.43c0,-167.24 163.03,-261.68 420.59,-261.68 240.3,0 515.06,60.11 806.84,175.84l175.94 -583.38c-369.02,-137.14 -708.16,-205.87 -1042.83,-205.87 -665.2,0 -1133.03,356.13 -1133.03,875.09 0,1093.76 1506.35,737.74 1506.35,1218.1 0,175.84 -163.03,278.76 -437.68,278.76 -257.53,0 -575.14,-81.4 -909.95,-210.14l-175.95 583.38c412.09,167.27 794.02,240.2 1150.26,240.2 673.81,0 1145.81,-360.33 1145.81,-892.2 0,-1128.06 -1506.35,-754.86 -1506.35,-1218.1z"/>
   <path class="fil1" d="M6181.56 1998.79c0,706.88 1092.37,567.22 1092.37,940.65 0,142.51 -142.61,190.97 -373.61,190.97 -228.2,0 -479.16,-59.87 -707.35,-210.94l0 407.62c205.36,114.03 462.07,179.56 738.71,179.56 419.27,0 778.61,-139.66 778.61,-587.18 0,-709.74 -1092.32,-581.48 -1092.32,-926.38 0,-122.59 108.35,-182.42 325.12,-185.27 222.45,-2.85 447.79,57.01 616.04,176.71l0 -399.06c-171.11,-96.92 -410.68,-153.93 -647.4,-153.93 -393.6,0 -730.17,182.45 -730.17,567.25zm1973.66 1467.96l148.31 -373.39 912.65 0 145.46 373.39 442.07 0 -812.83 -1995.28 -462.05 0 -815.68 1995.28 442.07 0zm558.99 -1442.32c17.12,-39.9 31.39,-79.8 45.66,-156.74 14.24,76.94 28.51,116.84 42.78,156.74l279.49 715.47 -644.57 0 276.64 -715.47zm1768.33 1442.32l0 -698.36 313.75 0 539.04 698.36 493.41 0 -596.09 -752.52c242.43,-76.94 436.37,-250.84 436.37,-592.89 0,-504.5 -405.01,-649.87 -792.89,-649.87l-821.39 0 0 1995.28 427.8 0zm0 -1619.03l413.57 0c179.67,0 336.54,76.94 336.54,282.18 0,202.38 -156.87,282.18 -336.54,282.18l-413.57 0 0 -564.36zm1851 1619.03l148.31 -373.39 912.66 0 145.46 373.39 442.07 0 -812.83 -1995.28 -462.06 0 -815.69 1995.28 442.08 0zm558.98 -1442.32c17.13,-39.9 31.4,-79.8 45.67,-156.74 14.24,76.94 28.51,116.84 42.78,156.74l279.5 715.47 -644.59 0 276.64 -715.47zm1340.55 -552.96l0 1995.28 427.8 0 0 -761.08 898.42 0 0 -384.8 -898.42 0 0 -464.59 981.12 0 0 -384.81 -1408.92 0zm1682.74 1995.28l148.31 -373.39 912.65 0 145.46 373.39 442.07 0 -812.83 -1995.28 -462.05 0 -815.69 1995.28 442.08 0zm558.99 -1442.32c17.12,-39.9 31.39,-79.8 45.66,-156.74 14.24,76.94 28.51,116.84 42.78,156.74l279.49 715.47 -644.57 0 276.64 -715.47zm1768.33 1442.32l0 -1029c0,-91.2 -2.85,-190.97 -8.56,-273.62l929.78 1302.62 402.16 0 0 -1995.28 -427.81 0 0 1029c0,91.21 2.85,190.98 8.56,273.63l-929.82 -1302.63 -402.11 0 0 1995.28 427.8 0z"/>
   <path class="fil2" d="M6810.61 3871.48l-268.28 400.79 -268.29 -400.79 -66.83 0 0 649.42 77.97 0 0 -501.92 233 348.85 48.28 0 233.01 -348.85 0 501.92 77.98 0 0 -649.42 -66.84 0zm668 556.64l0 -174.41c0,-124.32 -75.19,-189.26 -194.01,-189.26 -73.33,0 -134.6,17.63 -169.88,29.68l0 72.37c39,-16.7 93.77,-33.4 162.46,-33.4 81.69,0 127.17,44.54 127.17,111.32l0 15.78c-37.13,-8.34 -84.47,-13.91 -123.46,-13.91 -95.62,0 -201.44,35.25 -201.44,150.29 0,93.71 77.97,135.46 156.88,135.46 72.4,0 129.04,-22.28 173.59,-59.38 13,38.97 45.49,53.81 81.69,53.81 18.57,0 38.07,-3.72 55.7,-10.21l0 -60.31c-11.14,3.72 -23.21,6.5 -34.35,6.5 -19.5,0 -34.35,-7.42 -34.35,-34.33zm-323.04 -35.25c0,-64.94 70.55,-84.42 135.53,-84.42 36.2,0 81.69,6.49 113.25,12.99l0 81.64c-38.98,41.75 -95.62,64.94 -152.24,64.94 -49.2,0 -96.54,-23.19 -96.54,-75.15zm630.88 -243.07l0 -74.22 -66.84 0 0 649.43 74.26 0 0 -270.91c32.5,38.04 87.27,77.94 172.66,77.94 127.18,0 222.8,-100.2 222.8,-233.8 0,-133.59 -95.62,-233.79 -222.8,-233.79 -85.39,0 -140.16,39.89 -180.08,85.35zm328.61 148.44c0,102.05 -70.54,165.14 -156.88,165.14 -79.84,0 -139.24,-51.95 -164.31,-109.47l0 -111.34c25.07,-57.51 84.47,-109.47 164.31,-109.47 86.34,0 156.88,63.08 156.88,165.14zm347.74 222.66l0 -191.12 87.27 0 163.38 191.12 87.25 0 -189.37 -223.59 168.95 -221.73 -86.33 0 -141.1 185.55 -90.05 0 0 -185.55 -74.26 0 0 445.32 74.26 0zm450.8 -222.66c0,158.65 115.1,233.8 246.92,233.8 58.48,0 116.97,-11.14 157.81,-32.48l0 -72.37c-38.06,21.34 -91.91,36.19 -146.68,36.19 -90.04,0 -174.51,-38.96 -183.8,-132.67l354.61 0c27.85,-126.17 -35.27,-266.26 -207.01,-266.26 -105.82,0 -221.85,77.93 -221.85,233.79zm362.96 -32.47l-288.71 0c5.57,-87.21 76.13,-132.67 152.25,-132.67 113.24,0 142.96,85.36 136.46,132.67zm443.35 255.13l0 -376.66 163.38 0 0 -68.66 -401.95 0 0 68.66 164.31 0 0 376.66 74.26 0zm403.45 0l272.92 -325.64 0 325.64 74.27 0 0 -445.32 -63.12 0 -272.92 325.63 0 -325.63 -74.27 0 0 445.32 63.12 0zm651.3 0l0 -188.34 258.07 0 0 188.34 74.27 0 0 -445.32 -74.27 0 0 188.33 -258.07 0 0 -188.33 -74.26 0 0 445.32 74.26 0zm636.45 0l0 -376.66 251.57 0 0 -68.66 -325.83 0 0 445.32 74.26 0zm381.17 -222.66c0,152.15 116.97,233.8 237.64,233.8 121.61,0 237.64,-81.65 237.64,-233.8 0,-152.15 -116.03,-233.79 -237.64,-233.79 -120.67,0 -237.64,81.64 -237.64,233.79zm401.02 0c0,102.97 -72.4,163.28 -163.38,163.28 -90.97,0 -163.38,-60.31 -163.38,-163.28 0,-102.98 72.41,-163.29 163.38,-163.29 90.98,0 163.38,60.31 163.38,163.29zm525.06 222.66c96.54,0 143.88,-50.09 143.88,-123.39 0,-55.66 -37.12,-90.92 -73.34,-102.98 33.42,-14.84 59.42,-51.96 59.42,-98.35 0,-78.85 -59.42,-120.6 -137.39,-120.6l-244.14 0 0 445.32 251.57 0zm-177.31 -192.97l169.88 0c37.13,0 77.05,12.05 77.05,64.94 0,49.17 -33.42,63.08 -79.84,63.08l-167.09 0 0 -128.02zm0 -187.41l162.46 0c31.55,0 69.62,12.99 69.62,63.08 0,45.47 -30.64,60.31 -69.62,60.31l-162.46 0 0 -123.39zm496.29 157.72c0,152.15 116.97,233.8 237.64,233.8 121.61,0 237.65,-81.65 237.65,-233.8 0,-152.15 -116.04,-233.79 -237.65,-233.79 -120.67,0 -237.64,81.64 -237.64,233.79zm401.02 0c0,102.97 -72.4,163.28 -163.38,163.28 -90.97,0 -163.38,-60.31 -163.38,-163.28 0,-102.98 72.41,-163.29 163.38,-163.29 90.98,0 163.38,60.31 163.38,163.29zm242.86 0c0,158.65 115.1,233.8 246.92,233.8 58.48,0 116.97,-11.14 157.81,-32.48l0 -72.37c-38.06,21.34 -91.9,36.19 -146.67,36.19 -90.05,0 -174.52,-38.96 -183.81,-132.67l354.61 0c27.85,-126.17 -35.27,-266.26 -207,-266.26 -105.82,0 -221.86,77.93 -221.86,233.79zm362.96 -32.47l-288.71 0c5.57,-87.21 76.13,-132.67 152.25,-132.67 113.25,0 142.96,85.36 136.46,132.67zm427.94 255.13l66.84 -156.79 349.96 0 66.84 156.79 83.55 0 -282.2 -649.42 -86.34 0 -283.12 649.42 84.47 0zm231.15 -544.59c3.71,-8.35 6.49,-15.77 10.21,-25.06 3.71,9.29 6.5,16.71 10.21,25.06l134.6 315.43 -288.69 0 133.67 -315.43zm578.9 544.59l0 -376.66 251.57 0 0 -68.66 -325.84 0 0 445.32 74.27 0zm381.17 -222.66c0,158.65 115.1,233.8 246.92,233.8 58.48,0 116.97,-11.14 157.81,-32.48l0 -72.37c-38.06,21.34 -91.91,36.19 -146.67,36.19 -90.05,0 -174.52,-38.96 -183.81,-132.67l354.61 0c27.85,-126.17 -35.27,-266.26 -207,-266.26 -105.82,0 -221.86,77.93 -221.86,233.79zm362.96 -32.47l-288.71 0c5.57,-87.21 76.13,-132.67 152.25,-132.67 113.25,0 142.96,85.36 136.46,132.67zm341.24 255.13l0 -188.34 258.07 0 0 188.34 74.27 0 0 -445.32 -74.27 0 0 188.33 -258.07 0 0 -188.33 -74.26 0 0 445.32 74.26 0zm747.84 0l0 -376.66 163.38 0 0 -68.66 -401.95 0 0 68.66 164.31 0 0 376.66 74.26 0zm294.84 -220.8c0,158.64 121.6,231.94 238.57,231.94 55.7,0 103.04,-10.21 144.81,-30.62l0 -74.23c-37.13,22.28 -86.33,36.19 -134.6,36.19 -87.26,0 -174.53,-51.03 -174.53,-165.14 0,-116.9 90.06,-165.14 176.38,-165.14 47.35,0 94.69,13.91 128.11,39.89l0 -72.37c-38.07,-25.04 -87.26,-36.17 -137.39,-36.17 -116.03,0 -241.35,73.29 -241.35,235.65zm770.12 220.8l0 -376.66 163.38 0 0 -68.66 -401.96 0 0 68.66 164.31 0 0 376.66 74.27 0zm591.89 0c96.55,0 143.89,-50.09 143.89,-123.39 0,-55.66 -37.13,-90.92 -73.34,-102.98 33.42,-14.84 59.42,-51.96 59.42,-98.35 0,-78.85 -59.42,-120.6 -137.39,-120.6l-244.15 0 0 445.32 251.57 0zm-177.3 -192.97l169.88 0c37.13,0 77.04,12.05 77.04,64.94 0,49.17 -33.42,63.08 -79.83,63.08l-167.09 0 0 -128.02zm0 -187.41l162.45 0c31.56,0 69.62,12.99 69.62,63.08 0,45.47 -30.64,60.31 -69.62,60.31l-162.45 0 0 -123.39zm496.28 157.72c0,152.15 116.97,233.8 237.64,233.8 121.61,0 237.65,-81.65 237.65,-233.8 0,-152.15 -116.04,-233.79 -237.65,-233.79 -120.67,0 -237.64,81.64 -237.64,233.79zm401.03 0c0,102.97 -72.41,163.28 -163.39,163.28 -90.97,0 -163.38,-60.31 -163.38,-163.28 0,-102.98 72.41,-163.29 163.38,-163.29 90.98,0 163.39,60.31 163.39,163.29z"/>
  </g>
 </g>
</svg>
