<?xml version="1.0" encoding="utf-8"?>
<!-- Generator: Adobe Illustrator 24.1.1, SVG Export Plug-In . SVG Version: 6.00 Build 0)  -->
<svg version="1.1" id="Forma_1_1_" xmlns="http://www.w3.org/2000/svg" xmlns:xlink="http://www.w3.org/1999/xlink" x="0px" y="0px"
	 viewBox="0 0 59.8 50.6" style="enable-background:new 0 0 59.8 50.6;" xml:space="preserve">
<g id="Forma_1">
	<g>
		<path d="M59.6,44.3c-0.2-0.4-0.5-0.7-0.9-0.8l-0.5,0.3c-0.3,0.1-6.4,3.5-17,3.5c-4,0-8-0.5-12.1-1.4c-5-1.1-9.3-1.8-13-2.2
			c-3.5-0.4-6.4-0.5-8.6-0.5c-3.7,0-5.8,0.3-5.8,0.3l-0.8,0.1l-0.1-0.1l-0.2-0.5c-0.1,0.4-0.2,0.8-0.2,1.2c-0.1,0.3-0.2,0.6-0.1,0.9
			c0,0,0,0,0,0c-0.3,2-0.3,3.7,0.3,3.6c1.2-0.2,13.2,0.9,16.1,0.9c1.4,0,2-1.2,2.3-2.5c2.7,0.3,5.4,0.8,7.4,1.6
			c3.6,1.4,8.4,2,13.4,2c7.4,0,15.1-1.4,19.1-3.6C59.7,46.5,60.1,45.2,59.6,44.3z M1.1,40.7c0.1,1.1,0.4,1.7,0.4,1.7s2.1-0.3,6-0.3
			c0.7,0,1.5,0,2.3,0c2.7,0.1,6.1,0.3,10,0.9c1.3,0.2,2.6,0.4,4,0.6c1.7,0.3,3.6,0.7,5.5,1.1c4.4,1,8.4,1.4,11.9,1.4
			c10.4,0,16.5-3.4,16.5-3.4c-0.1-5.1-4.6-6.2-9.1-6.6c-0.5,0-0.9-0.1-1.4-0.1c-1,0-1.9,0.1-2.9,0.1c-2.7,0-5.4-0.4-7.6-3.5
			c-0.4,0.5-0.7,1-1,1.6c-0.5,0.9-1.9,0-1.3-1c0.4-0.7,0.9-1.4,1.4-2c-1-1.5-2-2.6-2.9-3.5c-0.8,0.6-1.4,1.5-2,2.3
			c-0.6,0.9-2,0.1-1.4-0.8c0.6-1,1.4-1.9,2.2-2.7c-0.9-0.8-1.6-1.4-2.2-2c-1.2,0.8-2.2,1.8-3.2,2.9c-0.7,0.8-2-0.2-1.3-1
			c1-1.3,2.2-2.4,3.6-3.3c-0.1-0.4-0.2-0.9-0.1-1.4c0.1-0.4,0.1-1,0.1-1.7c-2,0.1-3.9,0.2-5.8,0.5c-1.1,0.1-1-1.5,0-1.7
			c1.9-0.3,3.8-0.4,5.7-0.5c-0.1-1.5-0.3-3.3-0.6-5.1c-2.4,0-4.7,0.1-7.1,0.6c-1,0.2-1.5-1.4-0.4-1.6c2.4-0.5,4.8-0.7,7.3-0.7
			c-0.6-4-1.2-7.9-1.2-9.8c0-1.5-1.1-1.9-2.8-1.9c-2.2,0-5.5,0.7-9,0.7c-0.5,0-1.1,0-1.6-0.1c-0.5,0-1-0.1-1.5-0.1
			c-5.7,0-9,2.6-9,2.6S8.7,16.9,4,27C0.9,33.8,0.8,38.4,1.1,40.7z"/>
	</g>
</g>
</svg>
