<?xml version="1.0" encoding="utf-8"?>
<!-- Generator: Adobe Illustrator 24.1.1, SVG Export Plug-In . SVG Version: 6.00 Build 0)  -->
<svg version="1.1" id="Forma_1_1_" xmlns="http://www.w3.org/2000/svg" xmlns:xlink="http://www.w3.org/1999/xlink" x="0px" y="0px"
	 viewBox="0 0 577.7 578" style="enable-background:new 0 0 577.7 578;" xml:space="preserve">
<g id="Forma_1">
	<g>
		<path d="M577.5,456.2c-1.6-8.2-6.7-14.9-15.3-20.2l-118-69.8h-0.6c-4.1-2.4-9.6-3.7-16.5-3.7c-9.8,0-18.3,3.3-25.7,9.8l-34.9,35.5
			c-0.8,0.8-2.1,1.5-4,2.1c-1.8,0.6-3.2,0.9-4,0.9l-7.6-1.5c-5.1-1-12.4-4-22-8.9c-9.6-4.9-21.5-12.6-35.8-23
			c-14.3-10.4-30.6-25-48.9-43.8c-18.8-18.4-33.2-34.6-43.4-48.7c-10.2-14.1-17.7-26-22.6-35.8c-5.7-11-9.4-20.8-11-29.4
			c0-1.2,0.3-2.8,0.9-4.6c0.6-1.8,1.3-3.2,2.1-4l30-30c5.3-5.3,8.8-11.8,10.4-19.6c1.6-7.8,0.6-14.9-3.1-21.4L142,15.9
			c-2.9-4.5-6.3-8.3-10.4-11.3c-4.1-3.1-8.8-4.6-14.1-4.6c-7.3,0-13.9,2.9-19.6,8.6L16.6,90c-4.1,3.7-7.5,8.5-10.4,14.4
			s-4.7,11.7-5.5,17.5c0,0.8-0.2,4.9-0.6,12.2c-0.4,7.3,0.4,17.5,2.4,30.3c2,12.9,5.9,28.2,11.6,45.9c5.7,17.8,14.3,37.6,25.7,59.4
			c11.4,21.8,26.5,45.6,45.3,71.3c18.8,25.7,42.4,52.7,70.9,80.8c35.9,36.3,69.7,64.9,101.5,85.7c31.8,20.8,60.2,36.4,85.3,46.8
			c25.1,10.4,46.3,16.9,63.6,19.6c17.3,2.7,29.9,4,37.6,4c3.3,0,5.9-0.1,7.9-0.3c2-0.2,3.3-0.3,3.7-0.3c5.7-0.8,11.5-2.7,17.4-5.5
			c5.9-2.9,10.7-6.3,14.4-10.4l81.3-80.8C575.8,473.7,578.7,465.5,577.5,456.2z"/>
	</g>
</g>
</svg>
