<?xml version="1.0" encoding="utf-8"?>
<!-- Generator: Adobe Illustrator 24.1.1, SVG Export Plug-In . SVG Version: 6.00 Build 0)  -->
<svg version="1.1" id="Forma_1_1_" xmlns="http://www.w3.org/2000/svg" xmlns:xlink="http://www.w3.org/1999/xlink" x="0px" y="0px"
	 viewBox="0 0 72 98" style="enable-background:new 0 0 72 98;" xml:space="preserve">
<g id="Forma_1">
	<g>
		<path d="M36,0C16.1,0,0,16.2,0,36.1c0,5.2,1.1,10.1,3.1,14.7c9,19.7,26.3,40.6,31.3,46.5c0.4,0.4,0.9,0.7,1.5,0.7
			c0.6,0,1.1-0.3,1.5-0.7c5.1-5.9,22.3-26.8,31.3-46.5c2.1-4.6,3.1-9.5,3.1-14.7C72,16.2,55.8,0,36,0z M36,54.8
			c-10.3,0-18.7-8.4-18.7-18.7c0-10.3,8.4-18.7,18.7-18.7c10.3,0,18.7,8.4,18.7,18.7C54.7,46.4,46.3,54.8,36,54.8z"/>
	</g>
</g>
</svg>
