<?xml version="1.0" encoding="utf-8"?>
<!-- Generator: Adobe Illustrator 24.1.1, SVG Export Plug-In . SVG Version: 6.00 Build 0)  -->
<svg version="1.1" id="Shape_1_1_" xmlns="http://www.w3.org/2000/svg" xmlns:xlink="http://www.w3.org/1999/xlink" x="0px" y="0px"
	 viewBox="0 0 799.6 523" style="enable-background:new 0 0 799.6 523;" xml:space="preserve">
<g id="Shape_1">
	<g>
		<path d="M78.8,23.5C-4.4,23.5,0,313.6,0,356.7h78.7V23.5z M740,23.5c-32.9,0-59.6,42.6-59.6,95.2c0,52.6,26.7,95.2,59.6,95.2
			c32.9,0,59.6-42.6,59.6-95.2C799.6,66.2,772.9,23.5,740,23.5z M399.8,0C255.1,0,138.4,117.4,138.4,261.5
			c0,144.7,117.4,261.5,261.5,261.5c144.7,0,261.5-117.4,261.5-261.5C661.3,116.8,544.5,0,399.8,0z M399.8,429.7
			c-92.6,0-168.2-75.1-168.2-168.2c0-92.6,75.1-168.2,168.2-168.2s168.2,75.1,168.2,168.2C568.1,354.1,492.9,429.7,399.8,429.7z
			 M399.8,125.6c-75.1,0-135.9,60.9-135.9,135.9c0,75.1,60.9,135.9,135.9,135.9c75.1,0,135.9-60.9,135.9-135.9
			C535.7,186.4,475,125.6,399.8,125.6z M80.9,389.1h-51l-3.1,80.5c-0.7,16.5,12.1,29.9,28.6,29.9c16.5,0,29.2-13.9,28.6-29.9
			L80.9,389.1z M759.1,243.7c-7.2,3.4-32.5,3.4-38.2,0l-9.5,225.9c-0.7,16.5,12.1,29.9,28.6,29.9c16.5,0,29.2-13.9,28.6-29.9
			L759.1,243.7z"/>
	</g>
</g>
</svg>
