<?xml version="1.0" encoding="utf-8"?>
<!-- Generator: Adobe Illustrator 24.1.1, SVG Export Plug-In . SVG Version: 6.00 Build 0)  -->
<svg version="1.1" id="Forma_1_1_" xmlns="http://www.w3.org/2000/svg" xmlns:xlink="http://www.w3.org/1999/xlink" x="0px" y="0px"
	 viewBox="0 0 448 360.9" style="enable-background:new 0 0 448 360.9;" xml:space="preserve">
<g id="Forma_1">
	<g>
		<path d="M219.7,173c27.1,0,49.2-19.9,49.2-44.3c0-8.3-2.6-16.1-7-22.8c-16.7,8.6-37,10.5-55.4,10.6c-12.3,0.1-23.7,0.6-35.1,3.8
			c-0.6,2.7-0.9,5.5-0.9,8.4C170.5,153.1,192.5,173,219.7,173z M425.5,280c-6.9,5.5-16.5,11-28.5,16.2c-15.3-23-28.6-47.6-38.5-73.5
			c-7.4-19.4-14.5-41.4-12.4-62.4c1.2-12.2,9.6-28.9,24.8-25.9c6.1,1.2,10.8,6.3,15.9,9.6c8,5.2,17,6.7,26.4,5.4
			c18.3-43.3,2-91.9-25.1-117.3L381.1,0c-21.5,0.4-45.5,3.8-61.8,19.1c-11.4,10.7-16.7,25.4-22,39.7c-5.3,14.2-11.3,28.5-23,38.7
			c6.1,9.1,9.6,19.7,9.6,31.2c0,32.7-28.8,59.3-64.2,59.3c-35.4,0-64.2-26.6-64.2-59.3c0-2.4,0.2-4.9,0.5-7.2
			C101.5,96.6,54.4,140.9,50.4,144l29,30.4c21.9-23.9,47.6-28.4,49.2-28.5c-45.5,42.1-72.6,117.7-82.1,148.2
			c-10-4.6-18.1-9.4-24.1-14.2L0,308.1c23,18.4,52.3,28.6,80.4,36c38.2,10.1,77.9,14.8,117.4,16.3c42.1,1.6,84.6-0.4,126.3-7.2
			c33.3-5.4,67.1-13.6,97.4-28.7c9.3-4.6,18.4-10,26.5-16.5L425.5,280z M215.8,324.9c-44.6-0.6-89.7-5.2-132.7-17.5
			c30.5-46.7,80.8-81.4,138.5-77.9c53.1,3.2,99.8,37.2,129.8,79.5c0.4,0.6,0.8,1.1,1.2,1.7C308,321.7,261.6,325.4,215.8,324.9z"/>
	</g>
</g>
</svg>
