<svg 
 xmlns="http://www.w3.org/2000/svg"
 xmlns:xlink="http://www.w3.org/1999/xlink"
 width="805px" height="161px">
<defs>
<filter filterUnits="userSpaceOnUse" id="Filter_0" x="0px" y="0px" width="805px" height="161px"  >
    <feOffset in="SourceAlpha" dx="0" dy="0" />
    <feGaussianBlur result="blurOut" stdDeviation="3.873" />
    <feFlood flood-color="rgb(0, 0, 0)" result="floodOut" />
    <feComposite operator="atop" in="floodOut" in2="blurOut" />
    <feComponentTransfer><feFuncA type="linear" slope="0.2"/></feComponentTransfer>
    <feMerge>
    <feMergeNode/>
    <feMergeNode in="SourceGraphic"/>
  </feMerge>
</filter>

</defs>
<g filter="url(#Filter_0)">
<path fill-rule="evenodd"  fill="rgb(255, 255, 255)"
 d="M778.727,67.614 L778.727,44.572 L762.821,67.614 L752.198,67.614 L752.198,26.677 L763.467,26.677 L763.467,49.719 L779.373,26.677 L789.997,26.677 L789.997,67.614 L778.727,67.614 ZM771.449,24.045 C765.815,24.045 762.000,20.771 761.119,15.098 L767.341,13.986 C768.104,16.092 769.278,17.496 771.449,17.496 C773.680,17.496 774.854,16.092 775.617,13.986 L781.838,15.098 C780.958,20.771 777.143,24.045 771.449,24.045 ZM713.045,26.677 L746.090,26.677 L746.090,36.327 L724.314,36.327 L724.314,42.525 L744.036,42.525 L744.036,51.473 L724.314,51.473 L724.314,57.964 L746.383,57.964 L746.383,67.614 L713.045,67.614 L713.045,26.677 ZM694.376,52.058 L679.761,52.058 L679.761,67.614 L668.375,67.614 L668.375,26.677 L679.761,26.677 L679.761,41.999 L694.376,41.999 L694.376,26.677 L705.763,26.677 L705.763,67.614 L694.376,67.614 L694.376,52.058 ZM649.706,52.058 L635.091,52.058 L635.091,67.614 L623.704,67.614 L623.704,26.677 L635.091,26.677 L635.091,41.999 L649.706,41.999 L649.706,26.677 L661.093,26.677 L661.093,67.614 L649.706,67.614 L649.706,52.058 ZM584.552,26.677 L617.597,26.677 L617.597,36.327 L595.821,36.327 L595.821,42.525 L615.542,42.525 L615.542,51.473 L595.821,51.473 L595.821,57.964 L617.890,57.964 L617.890,67.614 L584.552,67.614 L584.552,26.677 ZM584.781,137.800 L571.281,137.800 L561.890,122.360 L557.957,126.922 L557.957,137.800 L546.570,137.800 L546.570,126.922 L542.638,122.360 L533.247,137.800 L519.747,137.800 L534.890,114.114 L520.275,96.862 L533.599,96.862 L546.570,113.471 L546.570,96.862 L557.957,96.862 L557.957,113.471 L570.929,96.862 L584.252,96.862 L569.637,114.114 L584.781,137.800 ZM561.833,58.082 C566.118,58.082 568.641,56.094 571.107,53.111 L579.676,59.193 C575.802,64.514 570.578,68.433 561.481,68.433 C549.742,68.433 540.292,59.485 540.292,47.145 C540.292,35.215 549.507,25.859 561.950,25.859 C570.343,25.859 575.567,29.485 579.206,34.514 L570.872,40.946 C568.524,38.023 565.765,36.210 561.833,36.210 C556.081,36.210 552.031,41.063 552.031,47.145 C552.031,53.286 556.081,58.082 561.833,58.082 ZM513.581,68.433 C500.903,68.433 491.512,59.017 491.512,47.145 C491.512,35.391 501.021,25.859 513.699,25.859 C526.377,25.859 535.768,35.274 535.768,47.145 C535.768,58.900 526.259,68.433 513.581,68.433 ZM513.581,36.093 C507.360,36.093 503.193,41.122 503.193,47.145 C503.193,53.052 507.477,58.199 513.699,58.199 C519.979,58.199 524.146,53.169 524.146,47.145 C524.146,41.239 519.862,36.093 513.581,36.093 ZM519.742,137.800 L507.534,137.800 L504.541,130.489 L488.693,130.489 L485.758,137.800 L473.785,137.800 L491.276,96.570 L502.251,96.570 L519.742,137.800 ZM496.675,110.020 L492.039,121.659 L501.254,121.659 L496.675,110.020 ZM461.631,145.986 L461.631,137.800 L439.797,137.800 L439.034,145.986 L428.821,145.986 L428.821,127.857 L432.460,127.857 C435.218,120.430 436.627,113.296 436.627,97.915 L436.627,96.862 L467.911,96.862 L467.911,127.857 L472.548,127.857 L471.257,145.986 L461.631,145.986 ZM456.525,106.804 L447.603,106.804 L447.603,107.213 C447.603,116.278 446.253,122.243 444.375,127.857 L456.525,127.857 L456.525,106.804 ZM458.110,44.572 L442.204,67.614 L431.580,67.614 L431.580,26.677 L442.849,26.677 L442.849,49.719 L458.756,26.677 L469.379,26.677 L469.379,67.614 L458.110,67.614 L458.110,44.572 ZM450.832,24.045 C445.197,24.045 441.382,20.771 440.502,15.098 L446.723,13.986 C447.486,16.092 448.660,17.496 450.832,17.496 C453.062,17.496 454.236,16.092 454.999,13.986 L461.221,15.098 C460.340,20.771 456.525,24.045 450.832,24.045 ZM404.927,138.618 C392.249,138.618 382.858,129.202 382.858,117.330 C382.858,105.576 392.366,96.043 405.044,96.043 C417.722,96.043 427.114,105.459 427.114,117.330 C427.114,129.085 417.605,138.618 404.927,138.618 ZM404.927,106.277 C398.705,106.277 394.538,111.306 394.538,117.330 C394.538,123.237 398.823,128.384 405.044,128.384 C411.325,128.384 415.492,123.354 415.492,117.330 C415.492,111.424 411.207,106.277 404.927,106.277 ZM403.461,68.433 C390.783,68.433 381.392,59.017 381.392,47.145 C381.392,35.391 390.900,25.859 403.578,25.859 C416.256,25.859 425.647,35.274 425.647,47.145 C425.647,58.900 416.139,68.433 403.461,68.433 ZM403.461,36.093 C397.239,36.093 393.072,41.122 393.072,47.145 C393.072,53.052 397.357,58.199 403.578,58.199 C409.859,58.199 414.026,53.169 414.026,47.145 C414.026,41.239 409.741,36.093 403.461,36.093 ZM361.783,126.103 L356.149,126.103 L356.149,137.800 L344.762,137.800 L344.762,117.343 L357.625,117.343 L357.625,117.213 L361.548,117.213 C365.598,117.213 368.064,115.109 368.064,111.775 C368.064,108.266 365.598,106.394 361.490,106.394 L357.625,106.394 L357.625,106.156 L344.762,106.156 L344.762,96.862 L362.370,96.862 C372.759,96.862 379.450,102.184 379.450,111.366 C379.450,121.015 371.996,126.103 361.783,126.103 ZM364.132,52.058 L349.517,52.058 L349.517,67.614 L338.130,67.614 L338.130,26.677 L349.517,26.677 L349.517,41.999 L364.132,41.999 L364.132,26.677 L375.519,26.677 L375.519,67.614 L364.132,67.614 L364.132,52.058 ZM326.093,106.804 L312.065,106.804 L312.065,137.800 L300.678,137.800 L300.678,96.862 L337.480,96.862 L337.480,137.800 L326.093,137.800 L326.093,106.804 ZM316.351,41.063 C325.859,41.063 332.844,45.391 332.844,54.222 C332.844,62.702 326.622,67.614 316.937,67.614 L297.040,67.614 L297.040,57.999 L308.427,57.999 L308.427,58.082 L316.057,58.082 C319.461,58.082 321.457,56.561 321.457,53.754 C321.457,51.239 319.461,49.602 316.116,49.602 L311.872,49.490 L311.872,49.398 L297.040,49.398 L297.040,26.677 L330.085,26.677 L330.085,36.327 L308.427,36.327 L308.427,41.063 L316.351,41.063 ZM277.960,128.267 C282.244,128.267 284.768,126.278 287.233,123.296 L295.803,129.378 C291.929,134.699 286.705,138.618 277.607,138.618 C265.868,138.618 256.419,129.670 256.419,117.330 C256.419,105.400 265.634,96.043 278.077,96.043 C286.470,96.043 291.694,99.670 295.333,104.699 L286.998,111.132 C284.651,108.208 281.892,106.394 277.960,106.394 C272.207,106.394 268.157,111.249 268.157,117.330 C268.157,123.472 272.207,128.267 277.960,128.267 ZM277.842,60.304 L261.995,60.304 L259.060,67.614 L247.086,67.614 L264.577,26.385 L275.553,26.385 L293.044,67.614 L280.836,67.614 L277.842,60.304 ZM269.977,39.836 L265.340,51.473 L274.555,51.473 L269.977,39.836 ZM238.338,67.614 L226.951,67.614 L226.951,36.619 L214.625,36.619 L214.625,26.677 L250.664,26.677 L250.664,36.619 L238.338,36.619 L238.338,67.614 ZM195.133,126.103 L189.499,126.103 L189.499,137.800 L178.112,137.800 L178.112,117.343 L191.031,117.343 L191.031,117.213 L194.899,117.213 C198.949,117.213 201.414,115.109 201.414,111.775 C201.414,108.266 198.949,106.394 194.840,106.394 L191.031,106.394 L191.031,106.156 L178.112,106.156 L178.112,96.862 L195.720,96.862 C206.109,96.862 212.800,102.184 212.800,111.366 C212.800,121.015 205.346,126.103 195.133,126.103 ZM152.110,26.677 L163.497,26.677 L163.497,57.673 L175.177,57.673 L175.177,26.677 L186.564,26.677 L186.564,57.673 L198.244,57.673 L198.244,26.677 L209.631,26.677 L209.631,67.614 L152.110,67.614 L152.110,26.677 ZM129.391,58.082 C133.676,58.082 136.200,56.094 138.665,53.111 L147.234,59.193 C143.360,64.514 138.137,68.433 129.039,68.433 C117.300,68.433 107.850,59.485 107.850,47.145 C107.850,35.215 117.065,25.859 129.508,25.859 C137.902,25.859 143.126,29.485 146.765,34.514 L138.430,40.946 C136.082,38.023 133.324,36.210 129.391,36.210 C123.639,36.210 119.589,41.063 119.589,47.145 C119.589,53.286 123.639,58.082 129.391,58.082 ZM92.409,60.304 L76.561,60.304 L73.627,67.614 L61.653,67.614 L79.144,26.385 L90.120,26.385 L107.611,67.614 L95.402,67.614 L92.409,60.304 ZM84.544,39.836 L79.907,51.473 L89.122,51.473 L84.544,39.836 ZM46.329,44.104 L35.822,60.129 L35.588,60.129 L25.140,44.222 L25.140,67.614 L13.988,67.614 L13.988,26.677 L26.020,26.677 L35.822,42.525 L45.624,26.677 L57.657,26.677 L57.657,67.614 L46.329,67.614 L46.329,44.104 ZM238.688,96.570 L256.179,137.800 L243.971,137.800 L240.977,130.489 L225.130,130.489 L222.195,137.800 L210.221,137.800 L227.712,96.570 L238.688,96.570 ZM237.690,121.659 L233.112,110.020 L228.475,121.659 L237.690,121.659 ZM599.343,119.903 L615.249,96.862 L625.873,96.862 L625.873,137.800 L614.603,137.800 L614.603,114.757 L598.697,137.800 L588.073,137.800 L588.073,96.862 L599.343,96.862 L599.343,119.903 Z"/>
</g>
</svg>