<?xml version="1.0" encoding="utf-8"?>
<!-- Generator: Adobe Illustrator 24.1.1, SVG Export Plug-In . SVG Version: 6.00 Build 0)  -->
<svg version="1.1" id="Shape_1_1_" xmlns="http://www.w3.org/2000/svg" xmlns:xlink="http://www.w3.org/1999/xlink" x="0px" y="0px"
	 viewBox="0 0 800.1 800.1" style="enable-background:new 0 0 800.1 800.1;" xml:space="preserve">
<g id="Shape_1">
	<g>
		<path d="M525.2,326.7l52.3-52.3l57.2-57.2l47.5-47.5l33.4,6.1l84.5-84.5l-77.3-13.9L708.9,0l-84.4,84.5l6.1,33.4L583,165.5
			C442.8,51.3,235.3,59.5,104.6,190c-139.4,139.4-139.4,366.1,0,505.6s366.2,139.4,505.7,0c116.7-116.6,135.7-294.4,57-430.9
			L607.9,324c48.7,102.9,30.6,229.8-54.4,314.9c-108.1,108.1-284,108.1-392.1,0c-108.1-108.1-108.1-283.9,0-392
			c99.3-99.3,255.8-107.3,364.4-24.1l-52.3,52.3c-79.8-55.2-189.9-47.3-260.7,23.4c-79.6,79.6-79.6,209,0,288.7
			c79.6,79.6,209.1,79.6,288.7,0c55.9-55.9,72.4-136.3,49.8-206.9L480.6,451c-2,29-13.8,57.3-35.9,79.5c-48.3,48.3-127,48.3-175.3,0
			c-48.3-48.3-48.3-127,0-175.3c39.3-39.3,98.6-46.7,145.5-22l-56.2,56.2c-14.3-0.5-28.7,4.8-39.5,15.6c-20.8,20.8-20.8,54.7,0,75.7
			c20.8,21,54.7,20.8,75.7,0c10.8-10.8,16.1-25.2,15.6-39.5l56.2-56.2L525.2,326.7z"/>
	</g>
</g>
</svg>
