<?xml version="1.0" encoding="utf-8"?>
<!-- Generator: Adobe Illustrator 24.1.1, SVG Export Plug-In . SVG Version: 6.00 Build 0)  -->
<svg version="1.1" id="Shape_1_1_" xmlns="http://www.w3.org/2000/svg" xmlns:xlink="http://www.w3.org/1999/xlink" x="0px" y="0px"
	 viewBox="0 0 453 441.9" style="enable-background:new 0 0 453 441.9;" xml:space="preserve">
<g id="Shape_1">
	<g>
		<path d="M420.1,104.5h-140l49.7-81.7c4.3-7.1,2.1-16.3-5-20.6c-7.1-4.3-16.3-2.1-20.6,5L245,104.5H208L148.8,7.2
			c-4.3-7.1-13.5-9.3-20.6-5c-7.1,4.3-9.3,13.6-5,20.6l49.7,81.7h-140C14.7,104.5,0,119.3,0,137.4V409c0,18.1,14.7,32.9,32.9,32.9
			h387.3c18.1,0,32.9-14.8,32.9-32.9V137.4C453,119.3,438.3,104.5,420.1,104.5z M317.7,369.5c0,9.9-8,17.9-17.9,17.9H71.2
			c-9.9,0-17.9-8-17.9-17.9V176.9c0-9.9,8-17.9,17.9-17.9h228.6c9.9,0,17.9,8,17.9,17.9V369.5z M383.8,363.8c-17.1,0-31-13.9-31-31
			c0-17.1,13.9-31,31-31s31,13.9,31,31S400.9,363.8,383.8,363.8z M383.8,244.7c-17.1,0-31-13.9-31-31s13.9-31,31-31s31,13.9,31,31
			S400.9,244.7,383.8,244.7z"/>
	</g>
</g>
</svg>
