<?xml version="1.0" encoding="utf-8"?>
<!-- Generator: Adobe Illustrator 24.1.1, SVG Export Plug-In . SVG Version: 6.00 Build 0)  -->
<svg version="1.1" id="Forma_1_1_" xmlns="http://www.w3.org/2000/svg" xmlns:xlink="http://www.w3.org/1999/xlink" x="0px" y="0px"
	 viewBox="0 0 76 67" style="enable-background:new 0 0 76 67;" xml:space="preserve">
<g id="Forma_1">
	<g>
		<path d="M34.6,0H1.1C0.5,0,0,0.5,0,1.1V67h4.5v-10c0-0.6,0.5-1.1,1.1-1.1h4.5c0.6,0,1.1,0.5,1.1,1.1v10h24.6V1.1
			C35.8,0.5,35.3,0,34.6,0z M11.2,49.7c0,0.3-0.2,0.6-0.6,0.6H5c-0.3,0-0.6-0.2-0.6-0.6v-5.6c0-0.3,0.3-0.6,0.6-0.6h5.6
			c0.3,0,0.6,0.3,0.6,0.6V49.7z M11.2,37.4c0,0.3-0.2,0.6-0.6,0.6H5c-0.3,0-0.6-0.3-0.6-0.6v-5.6c0-0.3,0.3-0.6,0.6-0.6h5.6
			c0.3,0,0.6,0.3,0.6,0.6V37.4z M11.2,25.1c0,0.3-0.2,0.6-0.6,0.6H5c-0.3,0-0.6-0.3-0.6-0.6v-5.6C4.5,19.2,4.7,19,5,19h5.6
			c0.3,0,0.6,0.3,0.6,0.6V25.1z M11.2,12.8c0,0.3-0.2,0.6-0.6,0.6H5c-0.3,0-0.6-0.3-0.6-0.6V7.3c0-0.3,0.3-0.6,0.6-0.6h5.6
			c0.3,0,0.6,0.2,0.6,0.6V12.8z M21.2,49.7c0,0.3-0.2,0.6-0.6,0.6h-5.6c-0.3,0-0.6-0.2-0.6-0.6v-5.6c0-0.3,0.3-0.6,0.6-0.6h5.6
			c0.3,0,0.6,0.3,0.6,0.6V49.7z M21.2,37.4c0,0.3-0.2,0.6-0.6,0.6h-5.6c-0.3,0-0.6-0.3-0.6-0.6v-5.6c0-0.3,0.3-0.6,0.6-0.6h5.6
			c0.3,0,0.6,0.3,0.6,0.6V37.4z M21.2,25.1c0,0.3-0.2,0.6-0.6,0.6h-5.6c-0.3,0-0.6-0.3-0.6-0.6v-5.6c0-0.3,0.3-0.6,0.6-0.6h5.6
			c0.3,0,0.6,0.3,0.6,0.6V25.1z M21.2,12.8c0,0.3-0.2,0.6-0.6,0.6h-5.6c-0.3,0-0.6-0.3-0.6-0.6V7.3c0-0.3,0.3-0.6,0.6-0.6h5.6
			c0.3,0,0.6,0.2,0.6,0.6V12.8z M31.3,49.7c0,0.3-0.2,0.6-0.6,0.6h-5.6c-0.3,0-0.6-0.2-0.6-0.6v-5.6c0-0.3,0.3-0.6,0.6-0.6h5.6
			c0.3,0,0.6,0.3,0.6,0.6V49.7z M31.3,37.4c0,0.3-0.2,0.6-0.6,0.6h-5.6c-0.3,0-0.6-0.3-0.6-0.6v-5.6c0-0.3,0.3-0.6,0.6-0.6h5.6
			c0.3,0,0.6,0.3,0.6,0.6V37.4z M31.3,25.1c0,0.3-0.2,0.6-0.6,0.6h-5.6c-0.3,0-0.6-0.3-0.6-0.6v-5.6c0-0.3,0.3-0.6,0.6-0.6h5.6
			c0.3,0,0.6,0.3,0.6,0.6V25.1z M31.3,12.8c0,0.3-0.2,0.6-0.6,0.6h-5.6c-0.3,0-0.6-0.3-0.6-0.6V7.3c0-0.3,0.3-0.6,0.6-0.6h5.6
			c0.3,0,0.6,0.2,0.6,0.6V12.8z M75.2,32.1l-33.5-9.4c-0.7-0.2-1.4,0.3-1.4,1.1V67h4.5v-8.9c0-0.6,0.5-1.1,1.1-1.1h4.5
			c0.6,0,1.1,0.5,1.1,1.1V67H76V33.2C76,32.7,75.7,32.3,75.2,32.1z M51.4,51.9c0,0.3-0.2,0.6-0.6,0.6h-5.6c-0.3,0-0.6-0.2-0.6-0.6
			v-5.6c0-0.3,0.3-0.6,0.6-0.6h5.6c0.3,0,0.6,0.2,0.6,0.6V51.9z M51.4,39.6c0,0.3-0.2,0.6-0.6,0.6h-5.6c-0.3,0-0.6-0.2-0.6-0.6v-5.6
			c0-0.3,0.3-0.6,0.6-0.6h5.6c0.3,0,0.6,0.3,0.6,0.6V39.6z M61.5,51.9c0,0.3-0.2,0.6-0.6,0.6h-5.6c-0.3,0-0.6-0.2-0.6-0.6v-5.6
			c0-0.3,0.3-0.6,0.6-0.6h5.6c0.3,0,0.6,0.2,0.6,0.6V51.9z M61.5,39.6c0,0.3-0.2,0.6-0.6,0.6h-5.6c-0.3,0-0.6-0.2-0.6-0.6v-5.6
			c0-0.3,0.3-0.6,0.6-0.6h5.6c0.3,0,0.6,0.3,0.6,0.6V39.6z M71.5,51.9c0,0.3-0.2,0.6-0.6,0.6h-5.6c-0.3,0-0.6-0.2-0.6-0.6v-5.6
			c0-0.3,0.3-0.6,0.6-0.6H71c0.3,0,0.6,0.2,0.6,0.6V51.9z M71.5,39.6c0,0.3-0.2,0.6-0.6,0.6h-5.6c-0.3,0-0.6-0.2-0.6-0.6v-5.6
			c0-0.3,0.3-0.6,0.6-0.6H71c0.3,0,0.6,0.3,0.6,0.6V39.6z"/>
	</g>
</g>
</svg>
