<?xml version="1.0" encoding="utf-8"?>
<!-- Generator: Adobe Illustrator 24.1.1, SVG Export Plug-In . SVG Version: 6.00 Build 0)  -->
<svg version="1.1" id="Forma_1_1_" xmlns="http://www.w3.org/2000/svg" xmlns:xlink="http://www.w3.org/1999/xlink" x="0px" y="0px"
	 viewBox="0 0 612 556.5" style="enable-background:new 0 0 612 556.5;" xml:space="preserve">
<g id="Forma_1">
	<g>
		<path d="M367.2,88.8V0l-61.9,24.1L243.3,0v88.8l61.9-24.1L367.2,88.8z M517,511.9l95,3.2L539.9,85.8l-1.1-6.3L415.4,29.2
			L306,296.2l-109.4-267L73.1,79.5L0,515.2l95-3.2l41.8-236.5l0.9,47l-10.1,136.8l-10.4,97.4h148.6l40.2-73.1l40.2,73.1h148.6
			l-10.4-97.4l-10.1-136.9l0.9-46.9L517,511.9z M449.8,221.6h-73.4v-27.5h73.4V221.6z"/>
	</g>
</g>
</svg>
