<?xml version="1.0" encoding="utf-8"?>
<!-- Generator: Adobe Illustrator 24.1.1, SVG Export Plug-In . SVG Version: 6.00 Build 0)  -->
<svg version="1.1" id="Forma_1_1_" xmlns="http://www.w3.org/2000/svg" xmlns:xlink="http://www.w3.org/1999/xlink" x="0px" y="0px"
	 viewBox="0 0 541.8 612" style="enable-background:new 0 0 541.8 612;" xml:space="preserve">
<g id="Forma_1">
	<g>
		<path d="M205.6,135.9c0.4,2.8,2.2,5.1,4.8,6.2c2.5,1.1,5.5,0.9,7.8-0.6l52.7-34.7l52.7,34.7c2.3,1.5,5.3,1.8,7.8,0.6
			c2.5-1.1,4.3-3.5,4.8-6.2l13-84.7c3.3-21.2-10.1-41.5-30.9-46.8c-0.9-0.2-1.7-0.4-2.6-0.6C302.9,1.4,287.5,0,270.9,0
			c-16.6,0-32,1.4-44.9,3.9c-1.1,0.2-2.3,0.5-3.4,0.8c-20.4,5.7-33.3,25.7-30,46.7L205.6,135.9z M232.3,53.2c0.6-1.6,2.2-2.8,3.9-3
			c8.4-0.9,17.9-1.5,28.1-1.7c2.2,0,4.3-0.1,6.6-0.1c2.2,0,4.4,0,6.5,0.1c10.2,0.2,19.7,0.8,28.1,1.7c1.8,0.2,3.3,1.3,3.9,3
			c0.6,1.6,0.3,3.5-0.8,4.9L270.9,102l-37.7-43.9C232,56.8,231.7,54.9,232.3,53.2z M540.4,353.7l-119-268.3
			c-6-13.6-17.4-24.1-31.4-29.1c-3.5-1.3-7.2-2.2-10.8-2.7l-15.3,99.4c-1.6,10.1-8.1,18.6-17.4,22.8c-3.9,1.7-8,2.6-12.1,2.6
			c-5.8,0-11.5-1.7-16.5-4.9l-46.9-30.9L224,173.5c-5,3.3-10.7,4.9-16.5,4.9c-4.1,0-8.2-0.8-12.1-2.6c-9.3-4.1-15.9-12.7-17.4-22.8
			l-15.3-99.4c-3.7,0.5-7.3,1.4-10.9,2.7c-14,5-25.3,15.5-31.4,29.1L1.4,353.7c-3.5,7.8-0.2,17,7.5,20.9l32.2,16.2
			c3.8,1.9,8.2,2.3,12.3,1c4-1.3,7.4-4.2,9.3-8L149.7,211L95.8,592.9c-0.9,4.7,0.4,9.6,3.5,13.3c3.1,3.7,7.6,5.8,12.4,5.8h144.3
			V477.9c0-8.3,6.7-15,15-15c8.3,0,15,6.7,15,15V612h138.9c6.1,0,12-2.7,15.9-7.4c3.9-4.7,5.6-10.9,4.5-17l-52.9-376.4l87,172.5
			c1.9,3.8,5.3,6.7,9.3,8c4.1,1.3,8.5,1,12.3-0.9l32.2-16.3C540.6,370.7,543.8,361.5,540.4,353.7z M270.9,421.4
			c-9.1,0-16.5-7.4-16.5-16.5c0-9.1,7.4-16.5,16.5-16.5c9.1,0,16.5,7.4,16.5,16.5C287.4,414,280,421.4,270.9,421.4z M270.9,355.5
			c-9.1,0-16.5-7.4-16.5-16.5c0-9.1,7.4-16.5,16.5-16.5c9.1,0,16.5,7.4,16.5,16.5C287.4,348,280,355.5,270.9,355.5z M270.9,289.5
			c-9.1,0-16.5-7.4-16.5-16.5c0-9.1,7.4-16.5,16.5-16.5c9.1,0,16.5,7.4,16.5,16.5C287.4,282.1,280,289.5,270.9,289.5z M270.9,223.6
			c-9.1,0-16.5-7.4-16.5-16.5c0-9.1,7.4-16.5,16.5-16.5c9.1,0,16.5,7.4,16.5,16.5C287.4,216.2,280,223.6,270.9,223.6z"/>
	</g>
</g>
</svg>
